<?xml version="1.0" encoding="utf-8"?>
<svg xmlns="http://www.w3.org/2000/svg" version="1.1" height="2524.77pt" fill="none" viewBox="-1036.75 -2522.65 2125.54 2524.77" y="-2522.65pt" stroke-miterlimit="10.000000" x="-1036.75pt" stroke-width="0.566929" width="2125.54pt">
 <g stroke-width="4.251969">
  <path d="M0 -0L1.73572e-15 -28.3465L3.47144e-15 -56.6929L5.20716e-15 -85.0394L6.94288e-15 -113.386L8.6786e-15 -141.732L1.04143e-14 -170.079L1.215e-14 -198.425L1.38858e-14 -226.772L1.56215e-14 -255.118L1.73572e-14 -283.465L1.90929e-14 -311.811L2.08286e-14 -340.157L2.25644e-14 -368.504L2.43001e-14 -396.85L2.60358e-14 -425.197L2.77715e-14 -453.543L9.69506 -480.18L19.3901 -506.817L29.0852 -533.454L38.7802 -560.091L48.4753 -586.728L58.1704 -613.365L67.8654 -640.002L77.5605 -666.639L87.2555 -693.276L96.9506 -719.913L106.646 -746.55L116.341 -773.187L134.561 -794.901L152.782 -816.616L171.003 -838.331L189.224 -860.045M171.003 -838.331M171.003 -838.331L180.698 -864.968L190.393 -891.605M180.698 -864.968M180.698 -864.968L190.393 -891.605L200.088 -918.242L209.783 -944.879L219.478 -971.515M209.783 -944.879M209.783 -944.879L209.783 -973.225L209.783 -1001.57M209.783 -973.225M209.783 -973.225L209.783 -1001.57M180.698 -864.968M152.782 -816.616L162.477 -843.253L172.172 -869.89L181.867 -896.527L191.562 -923.164L201.258 -949.801L210.953 -976.438M201.258 -949.801M201.258 -949.801L201.258 -978.147L201.258 -1006.49M201.258 -978.147M201.258 -978.147M172.172 -869.89L181.867 -896.527L191.562 -923.164M181.867 -896.527M181.867 -896.527L181.867 -924.873L181.867 -953.22M181.867 -924.873M181.867 -924.873M172.172 -869.89M116.341 -773.187L126.036 -799.824L135.731 -826.461L135.731 -854.807M135.731 -854.807M135.731 -854.807L135.731 -883.154L145.426 -909.791M135.731 -883.154L145.426 -909.791M145.426 -909.791M145.426 -909.791L155.121 -936.428L155.121 -964.774M155.121 -936.428M135.731 -826.461L126.036 -853.098M126.036 -853.098M126.036 -853.098L116.341 -879.735L98.12 -901.449M116.341 -879.735M135.731 -826.461L145.426 -853.098L155.121 -879.735L173.342 -901.449L191.562 -923.164L209.783 -944.879M209.783 -944.879M209.783 -944.879L228.004 -966.593L237.699 -993.23M228.004 -966.593M155.121 -879.735L173.342 -901.449M173.342 -901.449M173.342 -901.449L191.562 -923.164L201.258 -949.801M191.562 -923.164M116.341 -773.187L126.036 -799.824L135.731 -826.461L145.426 -853.098L155.121 -879.735L155.121 -908.081L155.121 -936.428L155.121 -964.774L155.121 -993.12L155.121 -1021.47L155.121 -1049.81L155.121 -1078.16M155.121 -1078.16M155.121 -1078.16L155.121 -1106.51L145.426 -1133.14M155.121 -1106.51L164.816 -1133.14L174.511 -1159.78L184.206 -1186.42L193.901 -1213.05M184.206 -1186.42M184.206 -1186.42L184.206 -1214.76L184.206 -1243.11M184.206 -1214.76M184.206 -1214.76L184.206 -1243.11M155.121 -1106.51M155.121 -1049.81L145.426 -1076.45L135.731 -1103.09L126.036 -1129.72L116.341 -1156.36L106.646 -1183L96.9506 -1209.64M106.646 -1183M106.646 -1183L88.4249 -1204.71L70.2041 -1226.43M88.4249 -1204.71M88.4249 -1204.71M135.731 -1103.09L126.036 -1129.72L116.341 -1156.36M126.036 -1129.72M126.036 -1129.72L107.815 -1151.44L89.5943 -1173.15M107.815 -1151.44M107.815 -1151.44M135.731 -1103.09M155.121 -879.735L173.342 -901.449L191.562 -923.164L201.258 -949.801M201.258 -949.801M201.258 -949.801L210.953 -976.438L229.173 -998.152M210.953 -976.438L229.173 -998.152L247.394 -1019.87M229.173 -998.152M229.173 -998.152L238.868 -1024.79L248.563 -1051.43M238.868 -1024.79M238.868 -1024.79M191.562 -923.164L191.562 -951.51L191.562 -979.857M191.562 -951.51M191.562 -951.51L181.867 -978.147L172.172 -1004.78M181.867 -978.147M181.867 -978.147M191.562 -923.164L209.783 -944.879L228.004 -966.593L252.553 -980.766L277.101 -994.94L301.65 -1009.11M301.65 -1009.11M301.65 -1009.11L326.199 -1023.29L354.115 -1028.21M326.199 -1023.29M228.004 -966.593L252.553 -980.766M252.553 -980.766M252.553 -980.766L277.101 -994.94L305.017 -999.862M277.101 -994.94L305.017 -999.862L332.933 -1004.78L360.849 -1009.71L388.765 -1014.63L416.681 -1019.55L444.596 -1024.47L472.512 -1029.4L500.428 -1034.32L528.344 -1039.24L556.26 -1044.16L584.175 -1049.09L612.091 -1054.01L636.64 -1068.18L661.189 -1082.35L685.737 -1096.53L710.286 -1110.7M685.737 -1096.53M685.737 -1096.53L703.958 -1118.24L722.179 -1139.96M703.958 -1118.24M703.958 -1118.24L722.179 -1139.96L740.4 -1161.67L758.62 -1183.39L776.841 -1205.1M758.62 -1183.39M758.62 -1183.39L768.315 -1210.02L778.011 -1236.66M768.315 -1210.02M768.315 -1210.02L778.011 -1236.66M703.958 -1118.24M661.189 -1082.35L679.409 -1104.07L697.63 -1125.78L715.851 -1147.5L734.072 -1169.21L752.292 -1190.93M752.292 -1190.93M752.292 -1190.93L770.513 -1212.64L780.208 -1239.28M770.513 -1212.64M697.63 -1125.78L715.851 -1147.5M715.851 -1147.5M715.851 -1147.5L734.072 -1169.21L758.62 -1183.39M734.072 -1169.21M697.63 -1125.78L715.851 -1147.5L734.072 -1169.21L752.292 -1190.93L770.513 -1212.64M752.292 -1190.93M752.292 -1190.93L761.987 -1217.56L771.683 -1244.2M761.987 -1217.56M761.987 -1217.56L771.683 -1244.2L781.378 -1270.84L791.073 -1297.47M791.073 -1297.47M791.073 -1297.47L800.768 -1324.11L800.768 -1352.46M800.768 -1324.11L818.988 -1345.83M761.987 -1217.56M734.072 -1169.21L743.767 -1195.85L753.462 -1222.49L763.157 -1249.12L772.852 -1275.76L782.547 -1302.4L792.242 -1329.03M782.547 -1302.4M782.547 -1302.4L782.547 -1330.74L782.547 -1359.09M782.547 -1330.74M782.547 -1330.74M753.462 -1222.49L763.157 -1249.12L772.852 -1275.76M763.157 -1249.12M763.157 -1249.12L763.157 -1277.47L763.157 -1305.82M763.157 -1277.47M763.157 -1277.47M753.462 -1222.49M612.091 -1054.01L630.312 -1075.72L648.533 -1097.44L666.753 -1119.15L684.974 -1140.87M666.753 -1119.15M666.753 -1119.15L676.448 -1145.79L686.144 -1172.43M676.448 -1145.79M676.448 -1145.79L686.144 -1172.43L695.839 -1199.06L705.534 -1225.7M705.534 -1225.7M705.534 -1225.7L715.229 -1252.34L715.229 -1280.68M715.229 -1252.34L733.449 -1274.05M676.448 -1145.79M648.533 -1097.44L658.228 -1124.07L667.923 -1150.71L677.618 -1177.35L687.313 -1203.98L697.008 -1230.62M697.008 -1230.62M697.008 -1230.62L706.703 -1257.26L724.924 -1278.97M706.703 -1257.26M667.923 -1150.71L677.618 -1177.35L687.313 -1203.98M677.618 -1177.35M677.618 -1177.35L677.618 -1205.69L677.618 -1234.04M677.618 -1205.69M677.618 -1205.69M667.923 -1150.71M612.091 -1054.01L640.007 -1058.93L667.923 -1063.85L695.839 -1068.77L723.754 -1073.7L751.67 -1068.77L779.586 -1063.85L807.502 -1058.93L835.418 -1054.01L863.333 -1049.09L891.249 -1044.16L915.798 -1029.99M915.798 -1029.99M915.798 -1029.99L940.347 -1015.82L968.263 -1010.89M940.347 -1015.82M891.249 -1044.16L919.165 -1039.24L947.081 -1034.32M919.165 -1039.24M919.165 -1039.24L947.081 -1044.16L974.997 -1049.09M947.081 -1044.16M947.081 -1044.16M891.249 -1044.16L919.165 -1039.24L947.081 -1034.32L974.997 -1039.24L1002.91 -1044.16L1030.83 -1049.09M1030.83 -1049.09M1030.83 -1049.09L1058.74 -1054.01L1086.66 -1049.09M1058.74 -1054.01M947.081 -1034.32L971.63 -1020.14M971.63 -1020.14M971.63 -1020.14L996.178 -1005.97L1024.09 -1001.05M996.178 -1005.97M723.754 -1073.7L751.67 -1068.77L779.586 -1063.85L804.135 -1049.68L828.684 -1035.51M804.135 -1049.68M804.135 -1049.68L832.051 -1044.76L859.966 -1039.83M832.051 -1044.76M832.051 -1044.76M779.586 -1063.85L807.502 -1058.93M807.502 -1058.93M807.502 -1058.93L835.418 -1054.01L863.333 -1058.93M835.418 -1054.01M779.586 -1063.85L807.502 -1058.93L835.418 -1054.01L863.333 -1058.93L891.249 -1063.85L919.165 -1068.77M919.165 -1068.77M919.165 -1068.77L947.081 -1073.7L974.997 -1068.77M947.081 -1073.7M835.418 -1054.01L859.966 -1039.83M859.966 -1039.83M859.966 -1039.83L884.515 -1025.66L912.431 -1020.74M884.515 -1025.66L902.736 -1003.95L920.957 -982.232L939.177 -960.517L957.398 -938.802M277.101 -994.94M77.5605 -666.639L77.5605 -694.985L77.5605 -723.332L77.5605 -751.678L77.5605 -780.025L77.5605 -808.371L77.5605 -836.718L77.5605 -865.064L77.5605 -893.411L77.5605 -921.757L77.5605 -950.104L77.5605 -978.45L77.5605 -1006.8L77.5605 -1035.14L77.5605 -1063.49L77.5605 -1091.84L77.5605 -1120.18L77.5605 -1148.53L77.5605 -1176.88L77.5605 -1205.22L77.5605 -1233.57L87.2555 -1260.21L96.9506 -1286.84L96.9506 -1315.19M96.9506 -1315.19M96.9506 -1315.19L96.9506 -1343.53L106.646 -1370.17M96.9506 -1343.53L106.646 -1370.17L116.341 -1396.81M106.646 -1370.17M106.646 -1370.17L106.646 -1398.52L106.646 -1426.86M106.646 -1398.52M106.646 -1398.52M96.9506 -1286.84L87.2555 -1313.48M87.2555 -1313.48M87.2555 -1313.48L77.5605 -1340.12L59.3397 -1361.83M77.5605 -1340.12M96.9506 -1286.84L106.646 -1313.48L116.341 -1340.12L134.561 -1361.83L152.782 -1383.55L171.003 -1405.26L189.224 -1426.97M171.003 -1405.26M171.003 -1405.26L180.698 -1431.9L190.393 -1458.53M180.698 -1431.9M180.698 -1431.9M116.341 -1340.12L134.561 -1361.83M134.561 -1361.83M134.561 -1361.83L152.782 -1383.55L177.331 -1397.72M152.782 -1383.55M77.5605 -1233.57L77.5605 -1261.91L77.5605 -1290.26L77.5605 -1318.61L77.5605 -1346.95M77.5605 -1318.61M77.5605 -1318.61L67.8654 -1345.24L58.1704 -1371.88M67.8654 -1345.24M67.8654 -1345.24L58.1704 -1371.88L48.4753 -1398.52L38.7802 -1425.16L29.0852 -1451.79M38.7802 -1425.16M38.7802 -1425.16L20.5595 -1446.87L2.33873 -1468.58M20.5595 -1446.87M20.5595 -1446.87L2.33873 -1468.58M67.8654 -1345.24M77.5605 -1290.26L67.8654 -1316.9L58.1704 -1343.53L48.4753 -1370.17L38.7802 -1396.81L29.0852 -1423.45L19.3901 -1450.08M29.0852 -1423.45M29.0852 -1423.45L10.8644 -1445.16L-7.35632 -1466.88M10.8644 -1445.16M10.8644 -1445.16M58.1704 -1343.53L48.4753 -1370.17L38.7802 -1396.81M48.4753 -1370.17M48.4753 -1370.17L30.2545 -1391.89L12.0338 -1413.6M30.2545 -1391.89M30.2545 -1391.89M58.1704 -1343.53M77.5605 -1233.57L77.5605 -1261.91L77.5605 -1290.26L77.5605 -1318.61L77.5605 -1346.95L67.8654 -1373.59L58.1704 -1400.23L48.4753 -1426.86L38.7802 -1453.5L29.0852 -1480.14L19.3901 -1506.78L9.69506 -1533.41L5.97947e-14 -1560.05M9.69506 -1533.41M9.69506 -1533.41L-8.52569 -1555.13L-26.7464 -1576.84M-8.52569 -1555.13M-8.52569 -1555.13L-26.7464 -1576.84L-44.9672 -1598.56L-63.1879 -1620.27M-63.1879 -1620.27M-63.1879 -1620.27L-81.4087 -1641.99L-91.1038 -1668.62M-81.4087 -1641.99L-91.1038 -1668.62M-8.52569 -1555.13M19.3901 -1506.78L1.16937 -1528.49L-17.0514 -1550.2L-35.2721 -1571.92L-53.4929 -1593.63L-71.7136 -1615.35L-89.9344 -1637.06M-71.7136 -1615.35M-71.7136 -1615.35L-96.2624 -1629.52L-120.811 -1643.7M-96.2624 -1629.52M-96.2624 -1629.52M-17.0514 -1550.2L-35.2721 -1571.92L-53.4929 -1593.63M-35.2721 -1571.92M-35.2721 -1571.92L-59.8209 -1586.09L-84.3696 -1600.27M-59.8209 -1586.09M-59.8209 -1586.09M-17.0514 -1550.2M77.5605 -1346.95L87.2555 -1373.59L96.9506 -1400.23L106.646 -1426.86M106.646 -1426.86M106.646 -1426.86L116.341 -1453.5L116.341 -1481.85M116.341 -1453.5L134.561 -1475.22L152.782 -1496.93L171.003 -1518.65L189.224 -1540.36M171.003 -1518.65M171.003 -1518.65L180.698 -1545.28L190.393 -1571.92M180.698 -1545.28M180.698 -1545.28L190.393 -1571.92M116.341 -1453.5M96.9506 -1400.23L96.9506 -1428.57L96.9506 -1456.92L96.9506 -1485.27L96.9506 -1513.61L96.9506 -1541.96L96.9506 -1570.31M96.9506 -1541.96M96.9506 -1541.96L87.2555 -1568.6L77.5605 -1595.23M87.2555 -1568.6M87.2555 -1568.6M96.9506 -1456.92L96.9506 -1485.27L96.9506 -1513.61M96.9506 -1485.27M96.9506 -1485.27L87.2555 -1511.9L77.5605 -1538.54M87.2555 -1511.9M87.2555 -1511.9M96.9506 -1456.92M77.5605 -893.411L77.5605 -921.757L77.5605 -950.104L77.5605 -978.45L77.5605 -1006.8L77.5605 -1035.14L77.5605 -1063.49L67.8654 -1090.13L58.1704 -1116.76M67.8654 -1090.13M67.8654 -1090.13L49.6447 -1111.84L31.4239 -1133.56M49.6447 -1111.84M49.6447 -1111.84L31.4239 -1133.56L13.2032 -1155.27M31.4239 -1133.56M31.4239 -1133.56L6.87516 -1147.73L-17.6736 -1161.9M6.87516 -1147.73M6.87516 -1147.73M77.5605 -1063.49L59.3397 -1085.2M59.3397 -1085.2M59.3397 -1085.2L41.119 -1106.92L16.5702 -1121.09M41.119 -1106.92M77.5605 -1063.49L77.5605 -1091.84L77.5605 -1120.18L87.2555 -1146.82L96.9506 -1173.46L106.646 -1200.09M106.646 -1200.09M106.646 -1200.09L116.341 -1226.73L116.341 -1255.08M116.341 -1226.73M77.5605 -1120.18L87.2555 -1146.82L96.9506 -1173.46M87.2555 -1146.82M87.2555 -1146.82L87.2555 -1175.17L87.2555 -1203.51M87.2555 -1175.17M87.2555 -1175.17L87.2555 -1203.51L87.2555 -1231.86L87.2555 -1260.21L87.2555 -1288.55L87.2555 -1316.9L87.2555 -1345.24L87.2555 -1373.59M87.2555 -1373.59M87.2555 -1373.59L87.2555 -1401.94L77.5605 -1428.57M87.2555 -1401.94L96.9506 -1428.57L106.646 -1455.21L116.341 -1481.85M116.341 -1481.85M116.341 -1481.85L126.036 -1508.49L144.257 -1530.2M126.036 -1508.49L144.257 -1530.2M87.2555 -1401.94M87.2555 -1345.24L77.5605 -1371.88L67.8654 -1398.52L58.1704 -1425.16L48.4753 -1451.79L38.7802 -1478.43L29.0852 -1505.07M38.7802 -1478.43M38.7802 -1478.43L20.5595 -1500.14L2.33873 -1521.86M20.5595 -1500.14M20.5595 -1500.14M67.8654 -1398.52L58.1704 -1425.16L48.4753 -1451.79M58.1704 -1425.16M58.1704 -1425.16L39.9496 -1446.87L21.7289 -1468.58M39.9496 -1446.87M39.9496 -1446.87M67.8654 -1398.52L58.1704 -1425.16L48.4753 -1451.79M87.2555 -1175.17M77.5605 -1006.8L67.8654 -1033.43L58.1704 -1060.07L48.4753 -1086.71L38.7802 -1113.34L29.0852 -1139.98L19.3901 -1166.62L9.69506 -1193.26L5.97947e-14 -1219.89L-9.69506 -1246.53L-19.3901 -1273.17L-29.0852 -1299.8M-29.0852 -1299.8M-29.0852 -1299.8L-38.7802 -1326.44L-57.001 -1348.15M-38.7802 -1326.44L-38.7802 -1354.79L-38.7802 -1383.13L-38.7802 -1411.48L-38.7802 -1439.83M-38.7802 -1411.48M-38.7802 -1411.48L-48.4753 -1438.12L-58.1704 -1464.75M-48.4753 -1438.12M-48.4753 -1438.12L-58.1704 -1464.75M-38.7802 -1326.44M-19.3901 -1273.17L-37.6109 -1294.88L-55.8316 -1316.6L-74.0524 -1338.31L-92.2731 -1360.02L-110.494 -1381.74L-128.715 -1403.45M-110.494 -1381.74M-110.494 -1381.74L-135.043 -1395.91L-159.591 -1410.09M-135.043 -1395.91M-135.043 -1395.91M-55.8316 -1316.6L-74.0524 -1338.31M-74.0524 -1338.31M-74.0524 -1338.31L-92.2731 -1360.02L-116.822 -1374.2M-92.2731 -1360.02M-55.8316 -1316.6M38.7802 -1113.34L29.0852 -1139.98L19.3901 -1166.62L9.69506 -1193.26M9.69506 -1193.26M9.69506 -1193.26L5.97947e-14 -1219.89L-18.2208 -1241.61M5.97947e-14 -1219.89L6.15304e-14 -1248.24L6.32661e-14 -1276.58L6.50018e-14 -1304.93M6.50018e-14 -1304.93M6.50018e-14 -1304.93L6.67376e-14 -1333.28L-9.69506 -1359.91M6.67376e-14 -1333.28L9.69506 -1359.91M5.97947e-14 -1219.89M19.3901 -1166.62L1.16937 -1188.33L-17.0514 -1210.05L-35.2721 -1231.76L-53.4929 -1253.48L-71.7136 -1275.19M-71.7136 -1275.19M-71.7136 -1275.19L-89.9344 -1296.91L-114.483 -1311.08M-89.9344 -1296.91M-17.0514 -1210.05L-35.2721 -1231.76M-35.2721 -1231.76M-35.2721 -1231.76L-53.4929 -1253.48L-63.1879 -1280.11M-53.4929 -1253.48M-17.0514 -1210.05M38.7802 -1113.34M77.5605 -893.411M2.77715e-14 -453.543L2.95072e-14 -481.89L3.1243e-14 -510.236L3.29787e-14 -538.583L3.47144e-14 -566.929L3.64501e-14 -595.276L3.81858e-14 -623.622L3.99216e-14 -651.969L4.16573e-14 -680.315L4.3393e-14 -708.661L4.51287e-14 -737.008L4.68644e-14 -765.354L4.86002e-14 -793.701L5.03359e-14 -822.047L5.20716e-14 -850.394L-9.69506 -877.031L-19.3901 -903.668M-9.69506 -877.031M-9.69506 -877.031L-27.9158 -898.745L-46.1366 -920.46M-27.9158 -898.745M-27.9158 -898.745L-46.1366 -920.46M-46.1366 -920.46M-46.1366 -920.46L-64.3573 -942.175L-88.9061 -956.348M-64.3573 -942.175M5.20716e-14 -850.394L-18.2208 -872.108M-18.2208 -872.108M-18.2208 -872.108L-36.4415 -893.823L-46.1366 -920.46M-36.4415 -893.823M5.20716e-14 -850.394L5.38073e-14 -878.74L5.5543e-14 -907.087L9.69506 -933.724L19.3901 -960.361L29.0852 -986.997L38.7802 -1013.63M29.0852 -986.997M29.0852 -986.997L29.0852 -1015.34L29.0852 -1043.69M29.0852 -1015.34M29.0852 -1015.34M5.5543e-14 -907.087L9.69506 -933.724M9.69506 -933.724M9.69506 -933.724L19.3901 -960.361L37.6109 -982.075M19.3901 -960.361L37.6109 -982.075L55.8316 -1003.79L74.0524 -1025.5L92.2731 -1047.22L110.494 -1068.93L128.715 -1090.65L138.41 -1117.29M138.41 -1117.29M138.41 -1117.29L148.105 -1143.92L148.105 -1172.27M148.105 -1143.92L166.325 -1165.64M166.325 -1165.64M166.325 -1165.64L184.546 -1187.35L194.241 -1213.99M184.546 -1187.35M128.715 -1090.65L128.715 -1118.99M128.715 -1118.99M128.715 -1118.99L128.715 -1147.34L119.02 -1173.98M128.715 -1147.34M128.715 -1090.65L146.935 -1112.36L165.156 -1134.08L189.705 -1148.25L214.254 -1162.42L238.802 -1176.6L263.351 -1190.77M238.802 -1176.6M238.802 -1176.6L257.023 -1198.31L275.244 -1220.03M257.023 -1198.31M257.023 -1198.31M165.156 -1134.08L189.705 -1148.25L214.254 -1162.42M189.705 -1148.25M189.705 -1148.25L207.926 -1169.97L226.146 -1191.68M207.926 -1169.97M207.926 -1169.97L226.146 -1191.68L244.367 -1213.39M19.3901 -960.361M4.86002e-14 -793.701L-9.69506 -820.338L-19.3901 -846.975L-29.0852 -873.612L-38.7802 -900.249L-48.4753 -926.886L-58.1704 -953.523L-67.8654 -980.159L-77.5605 -1006.8L-87.2555 -1033.43L-96.9506 -1060.07L-96.9506 -1088.42L-96.9506 -1116.76M-96.9506 -1088.42M-96.9506 -1088.42L-106.646 -1115.05L-116.341 -1141.69M-106.646 -1115.05M-106.646 -1115.05M-96.9506 -1060.07L-106.646 -1086.71L-116.341 -1113.34M-106.646 -1086.71M-106.646 -1086.71L-124.866 -1108.42L-143.087 -1130.14M-124.866 -1108.42M-124.866 -1108.42M-96.9506 -1060.07L-106.646 -1086.71L-116.341 -1113.34L-134.561 -1135.06L-152.782 -1156.77L-171.003 -1178.49L-189.224 -1200.2M-171.003 -1178.49M-171.003 -1178.49L-195.552 -1192.66L-220.1 -1206.83M-195.552 -1192.66M-195.552 -1192.66M-116.341 -1113.34L-116.341 -1141.69M-116.341 -1141.69M-116.341 -1141.69L-116.341 -1170.04L-106.646 -1196.67M-116.341 -1170.04M-38.7802 -900.249L-48.4753 -926.886L-58.1704 -953.523L-67.8654 -980.159M-67.8654 -980.159M-67.8654 -980.159L-77.5605 -1006.8L-95.7812 -1028.51M-77.5605 -1006.8L-77.5605 -1035.14L-77.5605 -1063.49L-77.5605 -1091.84L-77.5605 -1120.18M-77.5605 -1091.84M-77.5605 -1091.84L-87.2555 -1118.47L-96.9506 -1145.11M-87.2555 -1118.47M-87.2555 -1118.47L-96.9506 -1145.11M-77.5605 -1006.8M-58.1704 -953.523L-76.3911 -975.237L-94.6119 -996.952L-112.833 -1018.67L-131.053 -1040.38L-149.274 -1062.1M-149.274 -1062.1M-149.274 -1062.1L-167.495 -1083.81L-177.19 -1110.45M-167.495 -1083.81M-94.6119 -996.952L-112.833 -1018.67M-112.833 -1018.67M-112.833 -1018.67L-131.053 -1040.38L-155.602 -1054.55M-131.053 -1040.38M-94.6119 -996.952M-38.7802 -900.249L-48.4753 -926.886L-58.1704 -953.523L-67.8654 -980.159L-77.5605 -1006.8L-87.2555 -1033.43L-96.9506 -1060.07L-106.646 -1086.71L-116.341 -1113.34L-126.036 -1139.98L-135.731 -1166.62L-145.426 -1193.26L-155.121 -1219.89L-164.816 -1246.53L-174.511 -1273.17L-184.206 -1299.8M-184.206 -1299.8M-184.206 -1299.8L-193.901 -1326.44L-212.122 -1348.15M-193.901 -1326.44L-193.901 -1354.79L-193.901 -1383.13L-193.901 -1411.48M-193.901 -1411.48M-193.901 -1411.48L-193.901 -1439.83L-203.596 -1466.46M-193.901 -1439.83L-184.206 -1466.46M-193.901 -1326.44M-174.511 -1273.17L-192.732 -1294.88L-210.953 -1316.6L-229.173 -1338.31L-247.394 -1360.02L-265.615 -1381.74L-283.836 -1403.45M-265.615 -1381.74M-265.615 -1381.74L-290.164 -1395.91L-314.712 -1410.09M-290.164 -1395.91M-290.164 -1395.91M-210.953 -1316.6L-229.173 -1338.31L-247.394 -1360.02M-229.173 -1338.31M-229.173 -1338.31L-253.722 -1352.48L-278.271 -1366.66M-253.722 -1352.48M-253.722 -1352.48M-210.953 -1316.6L-229.173 -1338.31L-247.394 -1360.02L-265.615 -1381.74L-283.836 -1403.45L-302.056 -1425.17L-320.277 -1446.88L-338.498 -1468.6M-338.498 -1468.6M-338.498 -1468.6L-356.719 -1490.31L-366.414 -1516.95M-356.719 -1490.31L-366.414 -1516.95L-376.109 -1543.59L-385.804 -1570.22M-385.804 -1570.22M-385.804 -1570.22L-395.499 -1596.86L-395.499 -1625.21M-395.499 -1596.86L-395.499 -1625.21M-356.719 -1490.31M-320.277 -1446.88L-344.826 -1461.06L-369.375 -1475.23L-393.923 -1489.4L-418.472 -1503.58L-443.021 -1517.75L-467.57 -1531.92M-443.021 -1517.75M-443.021 -1517.75L-470.937 -1522.67L-498.852 -1527.59M-470.937 -1522.67M-470.937 -1522.67M-369.375 -1475.23L-393.923 -1489.4M-393.923 -1489.4M-393.923 -1489.4L-418.472 -1503.58L-436.693 -1525.29M-418.472 -1503.58M-369.375 -1475.23L-393.923 -1489.4L-418.472 -1503.58M-210.953 -1316.6M-155.121 -1219.89L-173.342 -1241.61L-191.562 -1263.32L-209.783 -1285.04L-228.004 -1306.75L-246.225 -1328.47L-264.445 -1350.18L-282.666 -1371.89L-300.887 -1393.61L-319.108 -1415.32L-337.328 -1437.04L-347.024 -1463.68L-356.719 -1490.31M-347.024 -1463.68M-347.024 -1463.68L-365.244 -1485.39L-383.465 -1507.1M-365.244 -1485.39M-365.244 -1485.39M-337.328 -1437.04L-355.549 -1458.75L-373.77 -1480.47M-355.549 -1458.75M-355.549 -1458.75L-380.098 -1472.93L-404.647 -1487.1M-380.098 -1472.93M-380.098 -1472.93M-337.328 -1437.04L-355.549 -1458.75L-373.77 -1480.47L-398.319 -1494.64L-422.867 -1508.81L-447.416 -1522.99M-447.416 -1522.99M-447.416 -1522.99L-471.965 -1537.16L-490.186 -1558.88M-471.965 -1537.16M-373.77 -1480.47L-383.465 -1507.1L-393.16 -1533.74M-383.465 -1507.1M-383.465 -1507.1L-401.686 -1528.82L-419.907 -1550.53M-401.686 -1528.82M-401.686 -1528.82M-228.004 -1306.75L-246.225 -1328.47L-264.445 -1350.18L-282.666 -1371.89L-300.887 -1393.61M-282.666 -1371.89M-282.666 -1371.89L-307.215 -1386.07L-331.764 -1400.24M-307.215 -1386.07M-307.215 -1386.07L-331.764 -1400.24L-356.312 -1414.41L-380.861 -1428.59L-405.41 -1442.76M-380.861 -1428.59M-380.861 -1428.59L-408.777 -1433.51L-436.693 -1438.43M-408.777 -1433.51M-408.777 -1433.51L-436.693 -1438.43M-307.215 -1386.07M-264.445 -1350.18L-288.994 -1364.35L-313.543 -1378.53L-338.092 -1392.7L-362.64 -1406.87L-387.189 -1421.05L-411.738 -1435.22M-387.189 -1421.05M-387.189 -1421.05L-415.105 -1425.97L-443.021 -1430.89M-415.105 -1425.97M-415.105 -1425.97M-313.543 -1378.53L-338.092 -1392.7L-362.64 -1406.87M-338.092 -1392.7M-338.092 -1392.7L-366.008 -1397.62L-393.923 -1402.54M-366.008 -1397.62M-366.008 -1397.62M-313.543 -1378.53M-228.004 -1306.75L-246.225 -1328.47L-264.445 -1350.18L-282.666 -1371.89L-300.887 -1393.61M-38.7802 -900.249M4.16573e-14 -680.315L-9.69506 -706.952L-19.3901 -733.589L-29.0852 -760.226L-38.7802 -786.863L-48.4753 -813.5L-58.1704 -840.137L-67.8654 -866.774L-77.5605 -893.411L-87.2555 -920.048L-96.9506 -946.685L-106.646 -973.321L-116.341 -999.958L-126.036 -1026.6L-135.731 -1053.23L-145.426 -1079.87L-155.121 -1106.51L-164.816 -1133.14L-174.511 -1159.78L-184.206 -1186.42L-193.901 -1213.05L-193.901 -1241.4L-193.901 -1269.75L-203.596 -1296.38M-203.596 -1296.38M-203.596 -1296.38L-213.291 -1323.02L-213.291 -1351.37M-213.291 -1323.02L-213.291 -1351.37L-213.291 -1379.71M-213.291 -1351.37M-213.291 -1351.37L-222.986 -1378L-232.681 -1404.64M-222.986 -1378M-222.986 -1378M-193.901 -1269.75L-212.122 -1291.46L-230.343 -1313.18M-212.122 -1291.46M-212.122 -1291.46L-236.671 -1305.63L-261.219 -1319.81M-236.671 -1305.63M-236.671 -1305.63M-193.901 -1269.75L-193.901 -1298.09L-193.901 -1326.44L-184.206 -1353.08L-174.511 -1379.71L-164.816 -1406.35L-155.121 -1432.99M-164.816 -1406.35M-164.816 -1406.35L-164.816 -1434.7L-164.816 -1463.04M-164.816 -1434.7M-164.816 -1434.7M-193.901 -1326.44L-184.206 -1353.08M-184.206 -1353.08M-184.206 -1353.08L-174.511 -1379.71L-156.29 -1401.43M-174.511 -1379.71M-193.901 -1213.05L-203.596 -1239.69L-213.291 -1266.33L-222.986 -1292.96M-222.986 -1292.96M-222.986 -1292.96L-232.681 -1319.6L-232.681 -1347.95M-232.681 -1319.6L-232.681 -1347.95L-232.681 -1376.29L-232.681 -1404.64L-232.681 -1432.99M-232.681 -1404.64M-232.681 -1404.64L-242.376 -1431.28L-252.072 -1457.92M-242.376 -1431.28M-242.376 -1431.28L-252.072 -1457.92M-232.681 -1319.6M-213.291 -1266.33L-231.512 -1288.04L-249.733 -1309.76L-267.954 -1331.47L-286.174 -1353.19L-304.395 -1374.9L-322.616 -1396.62M-304.395 -1374.9M-304.395 -1374.9L-328.944 -1389.07L-353.493 -1403.25M-328.944 -1389.07M-328.944 -1389.07M-249.733 -1309.76L-267.954 -1331.47L-286.174 -1353.19M-267.954 -1331.47M-267.954 -1331.47L-292.502 -1345.65L-317.051 -1359.82M-292.502 -1345.65M-292.502 -1345.65M-249.733 -1309.76M-193.901 -1213.05L-203.596 -1239.69L-213.291 -1266.33L-222.986 -1292.96L-232.681 -1319.6L-250.902 -1341.32L-269.123 -1363.03L-287.344 -1384.75L-305.564 -1406.46L-323.785 -1428.18L-342.006 -1449.89L-351.701 -1476.53M-351.701 -1476.53M-351.701 -1476.53L-361.396 -1503.16L-379.617 -1524.88M-361.396 -1503.16M-342.006 -1449.89L-360.227 -1471.6M-360.227 -1471.6M-360.227 -1471.6L-378.447 -1493.32L-402.996 -1507.49M-378.447 -1493.32M-342.006 -1449.89L-360.227 -1471.6L-378.447 -1493.32L-402.996 -1507.49L-427.545 -1521.67L-452.094 -1535.84L-476.642 -1550.01M-452.094 -1535.84M-452.094 -1535.84L-480.009 -1540.76L-507.925 -1545.68M-480.009 -1540.76M-480.009 -1540.76M-378.447 -1493.32L-388.142 -1519.96M-388.142 -1519.96M-388.142 -1519.96L-397.838 -1546.59L-397.838 -1574.94M-397.838 -1546.59M-232.681 -1319.6L-232.681 -1347.95L-232.681 -1376.29L-242.376 -1402.93L-252.072 -1429.57M-242.376 -1402.93M-242.376 -1402.93L-260.597 -1424.65L-278.818 -1446.36M-260.597 -1424.65M-260.597 -1424.65L-278.818 -1446.36L-297.039 -1468.08M-278.818 -1446.36M-278.818 -1446.36L-303.367 -1460.53L-327.915 -1474.71M-303.367 -1460.53M-303.367 -1460.53M-232.681 -1376.29L-250.902 -1398.01L-269.123 -1419.72M-250.902 -1398.01M-250.902 -1398.01L-275.451 -1412.18L-300 -1426.36M-275.451 -1412.18M-275.451 -1412.18M-232.681 -1376.29L-232.681 -1404.64L-232.681 -1432.99L-222.986 -1459.62L-213.291 -1486.26L-203.596 -1512.9M-203.596 -1512.9M-203.596 -1512.9L-193.901 -1539.54L-175.68 -1561.25M-193.901 -1539.54M-232.681 -1432.99L-222.986 -1459.62M-222.986 -1459.62M-222.986 -1459.62L-213.291 -1486.26L-213.291 -1514.61M-213.291 -1486.26M-77.5605 -893.411L-87.2555 -920.048L-96.9506 -946.685L-106.646 -973.321L-116.341 -999.958L-126.036 -1026.6L-135.731 -1053.23L-153.952 -1074.95L-172.172 -1096.66M-153.952 -1074.95M-153.952 -1074.95L-178.5 -1089.12L-203.049 -1103.29M-178.5 -1089.12M-178.5 -1089.12L-203.049 -1103.29L-227.598 -1117.47M-203.049 -1103.29M-203.049 -1103.29L-230.965 -1108.22L-258.881 -1113.14M-230.965 -1108.22M-230.965 -1108.22M-135.731 -1053.23L-160.28 -1067.41M-160.28 -1067.41M-160.28 -1067.41L-184.828 -1081.58L-212.744 -1086.5M-184.828 -1081.58M-135.731 -1053.23L-145.426 -1079.87L-155.121 -1106.51L-155.121 -1134.85L-155.121 -1163.2L-155.121 -1191.55L-155.121 -1219.89M-155.121 -1191.55M-155.121 -1191.55L-164.816 -1218.18L-174.511 -1244.82M-164.816 -1218.18M-164.816 -1218.18M-155.121 -1106.51L-155.121 -1134.85L-155.121 -1163.2M-155.121 -1134.85M-155.121 -1134.85L-164.816 -1161.49L-174.511 -1188.13M-164.816 -1161.49M-164.816 -1161.49L-174.511 -1188.13L-184.206 -1214.76L-193.901 -1241.4L-203.596 -1268.04L-213.291 -1294.67L-222.986 -1321.31L-222.986 -1349.66M-222.986 -1349.66M-222.986 -1349.66L-222.986 -1378L-213.291 -1404.64M-222.986 -1378M-222.986 -1321.31L-232.681 -1347.95M-232.681 -1347.95M-232.681 -1347.95L-242.376 -1374.59L-242.376 -1402.93M-242.376 -1374.59M-222.986 -1321.31L-232.681 -1347.95L-242.376 -1374.59L-260.597 -1396.3L-278.818 -1418.01L-297.039 -1439.73L-315.259 -1461.44M-297.039 -1439.73M-297.039 -1439.73L-321.587 -1453.9L-346.136 -1468.08M-321.587 -1453.9M-321.587 -1453.9M-242.376 -1374.59L-242.376 -1402.93M-242.376 -1402.93M-242.376 -1402.93L-242.376 -1431.28L-232.681 -1457.92M-242.376 -1431.28L-232.681 -1457.92L-222.986 -1484.55M-164.816 -1161.49M-116.341 -999.958L-134.561 -1021.67L-152.782 -1043.39L-171.003 -1065.1L-189.224 -1086.82L-207.444 -1108.53L-225.665 -1130.25L-243.886 -1151.96L-262.107 -1173.68L-280.327 -1195.39L-298.548 -1217.1L-323.097 -1231.28L-347.646 -1245.45M-323.097 -1231.28M-323.097 -1231.28L-351.013 -1236.2L-378.929 -1241.12M-351.013 -1236.2M-351.013 -1236.2L-378.929 -1241.12M-378.929 -1241.12M-378.929 -1241.12L-406.844 -1246.05L-434.76 -1241.12M-406.844 -1246.05M-298.548 -1217.1L-326.464 -1222.03L-354.38 -1226.95M-326.464 -1222.03M-326.464 -1222.03L-354.38 -1217.1L-382.296 -1212.18M-354.38 -1217.1M-354.38 -1217.1M-298.548 -1217.1L-316.769 -1238.82L-334.99 -1260.53L-344.685 -1287.17L-354.38 -1313.81L-364.075 -1340.45M-364.075 -1340.45M-364.075 -1340.45L-373.77 -1367.08L-391.991 -1388.8M-373.77 -1367.08M-334.99 -1260.53L-344.685 -1287.17L-354.38 -1313.81M-344.685 -1287.17M-344.685 -1287.17L-362.906 -1308.89L-381.126 -1330.6M-362.906 -1308.89M-362.906 -1308.89M-189.224 -1086.82L-207.444 -1108.53L-225.665 -1130.25L-235.36 -1156.88L-245.055 -1183.52M-235.36 -1156.88M-235.36 -1156.88L-253.581 -1178.6L-271.802 -1200.31M-253.581 -1178.6M-253.581 -1178.6M-225.665 -1130.25L-243.886 -1151.96M-243.886 -1151.96M-243.886 -1151.96L-262.107 -1173.68L-271.802 -1200.31M-262.107 -1173.68M-225.665 -1130.25L-243.886 -1151.96L-262.107 -1173.68L-286.655 -1187.85L-311.204 -1202.02L-335.753 -1216.2M-335.753 -1216.2M-335.753 -1216.2L-360.302 -1230.37L-378.522 -1252.08M-360.302 -1230.37M-262.107 -1173.68L-271.802 -1200.31L-281.497 -1226.95M-271.802 -1200.31M-271.802 -1200.31L-290.023 -1222.03L-308.243 -1243.74M-290.023 -1222.03M-290.023 -1222.03M-189.224 -1086.82M-77.5605 -893.411M2.77715e-14 -453.543L2.95072e-14 -481.89L3.1243e-14 -510.236L3.29787e-14 -538.583L3.47144e-14 -566.929L3.64501e-14 -595.276L3.81858e-14 -623.622L3.99216e-14 -651.969L4.16573e-14 -680.315L4.3393e-14 -708.661L4.51287e-14 -737.008L4.68644e-14 -765.354L4.86002e-14 -793.701L5.03359e-14 -822.047L5.20716e-14 -850.394L5.38073e-14 -878.74L5.5543e-14 -907.087L-9.69506 -933.724L-19.3901 -960.361L-29.0852 -986.997L-38.7802 -1013.63L-48.4753 -1040.27L-58.1704 -1066.91L-67.8654 -1093.55L-77.5605 -1120.18L-87.2555 -1146.82L-96.9506 -1173.46L-106.646 -1200.09L-116.341 -1226.73L-126.036 -1253.37L-135.731 -1280L-145.426 -1306.64L-155.121 -1333.28L-164.816 -1359.91L-174.511 -1386.55L-184.206 -1413.19L-193.901 -1439.83L-203.596 -1466.46L-213.291 -1493.1L-222.986 -1519.74L-232.681 -1546.37L-242.376 -1573.01L-252.072 -1599.65L-261.767 -1626.28L-271.462 -1652.92L-271.462 -1681.27L-271.462 -1709.61L-261.767 -1736.25M-261.767 -1736.25M-261.767 -1736.25L-252.072 -1762.89L-252.072 -1791.23M-252.072 -1762.89M-271.462 -1709.61L-271.462 -1737.96L-271.462 -1766.31M-271.462 -1737.96M-271.462 -1737.96L-281.157 -1764.6L-290.852 -1791.23M-281.157 -1764.6M-281.157 -1764.6M-271.462 -1709.61L-271.462 -1737.96L-271.462 -1766.31L-281.157 -1792.94L-290.852 -1819.58L-300.547 -1846.22L-310.242 -1872.86M-300.547 -1846.22M-300.547 -1846.22L-318.768 -1867.93L-336.988 -1889.65M-318.768 -1867.93M-318.768 -1867.93M-271.462 -1766.31L-261.767 -1792.94M-261.767 -1792.94M-261.767 -1792.94L-252.072 -1819.58L-252.072 -1847.93M-252.072 -1819.58M-271.462 -1652.92L-281.157 -1679.56L-290.852 -1706.2L-300.547 -1732.83M-300.547 -1732.83M-300.547 -1732.83L-310.242 -1759.47L-310.242 -1787.82M-310.242 -1759.47L-310.242 -1787.82L-310.242 -1816.16L-310.242 -1844.51M-310.242 -1844.51M-310.242 -1844.51L-310.242 -1872.86L-300.547 -1899.49M-310.242 -1872.86L-300.547 -1899.49M-310.242 -1759.47M-290.852 -1706.2L-309.073 -1727.91L-327.293 -1749.62L-345.514 -1771.34L-363.735 -1793.05L-381.956 -1814.77L-400.176 -1836.48M-381.956 -1814.77M-381.956 -1814.77L-406.504 -1828.94L-431.053 -1843.11M-406.504 -1828.94M-406.504 -1828.94M-327.293 -1749.62L-345.514 -1771.34L-363.735 -1793.05M-345.514 -1771.34M-345.514 -1771.34L-370.063 -1785.51L-394.612 -1799.69M-370.063 -1785.51M-370.063 -1785.51M-327.293 -1749.62M-271.462 -1652.92L-281.157 -1679.56L-290.852 -1706.2L-300.547 -1732.83L-310.242 -1759.47L-328.463 -1781.18L-346.683 -1802.9L-364.904 -1824.61L-383.125 -1846.33L-401.346 -1868.04L-419.566 -1889.76L-429.261 -1916.39M-429.261 -1916.39M-429.261 -1916.39L-438.957 -1943.03L-457.177 -1964.75M-438.957 -1943.03M-419.566 -1889.76L-437.787 -1911.47M-437.787 -1911.47M-437.787 -1911.47L-456.008 -1933.19L-480.557 -1947.36M-456.008 -1933.19M-419.566 -1889.76L-437.787 -1911.47L-456.008 -1933.19L-480.557 -1947.36L-505.105 -1961.53L-529.654 -1975.71M-529.654 -1975.71M-529.654 -1975.71L-554.203 -1989.88L-582.119 -1994.8M-554.203 -1989.88M-456.008 -1933.19L-465.703 -1959.82M-465.703 -1959.82M-465.703 -1959.82L-475.398 -1986.46L-475.398 -2014.81M-475.398 -1986.46M-310.242 -1759.47L-310.242 -1787.82L-310.242 -1816.16L-310.242 -1844.51M-310.242 -1844.51M-310.242 -1844.51L-310.242 -1872.86L-300.547 -1899.49M-310.242 -1872.86L-300.547 -1899.49L-290.852 -1926.13L-281.157 -1952.77L-271.462 -1979.4M-281.157 -1952.77M-281.157 -1952.77L-281.157 -1981.11L-281.157 -2009.46M-281.157 -1981.11M-281.157 -1981.11L-281.157 -2009.46M-310.242 -1872.86M-310.242 -1816.16L-319.937 -1842.8L-329.632 -1869.44L-339.327 -1896.07L-349.022 -1922.71L-358.717 -1949.35M-358.717 -1949.35M-358.717 -1949.35L-368.412 -1975.98L-386.633 -1997.7M-368.412 -1975.98M-329.632 -1869.44L-339.327 -1896.07L-349.022 -1922.71M-339.327 -1896.07M-339.327 -1896.07L-357.548 -1917.79L-375.769 -1939.5M-357.548 -1917.79M-357.548 -1917.79M-329.632 -1869.44L-339.327 -1896.07L-349.022 -1922.71L-358.717 -1949.35L-368.412 -1975.98L-378.107 -2002.62L-387.802 -2029.26L-397.497 -2055.89L-407.192 -2082.53L-416.888 -2109.17L-426.583 -2135.81L-436.278 -2162.44L-445.973 -2189.08L-455.668 -2215.72L-465.363 -2242.35L-475.058 -2268.99M-475.058 -2268.99M-475.058 -2268.99L-484.753 -2295.63L-484.753 -2323.97M-484.753 -2295.63L-484.753 -2323.97L-484.753 -2352.32L-484.753 -2380.67L-484.753 -2409.01M-484.753 -2380.67M-484.753 -2380.67L-494.448 -2407.3L-504.143 -2433.94M-494.448 -2407.3M-494.448 -2407.3L-504.143 -2433.94M-484.753 -2295.63M-465.363 -2242.35L-483.584 -2264.07L-501.804 -2285.78L-520.025 -2307.5L-538.246 -2329.21L-556.467 -2350.93M-556.467 -2350.93M-556.467 -2350.93L-574.687 -2372.64L-599.236 -2386.81M-574.687 -2372.64M-501.804 -2285.78L-520.025 -2307.5M-520.025 -2307.5M-520.025 -2307.5L-538.246 -2329.21L-547.941 -2355.85M-538.246 -2329.21M-501.804 -2285.78L-520.025 -2307.5L-538.246 -2329.21L-556.467 -2350.93L-574.687 -2372.64L-592.908 -2394.36L-611.129 -2416.07L-629.35 -2437.79L-647.57 -2459.5M-629.35 -2437.79M-629.35 -2437.79L-653.898 -2451.96L-678.447 -2466.13M-653.898 -2451.96M-653.898 -2451.96L-678.447 -2466.13L-702.996 -2480.3L-727.545 -2494.48L-752.093 -2508.65M-727.545 -2494.48M-727.545 -2494.48L-755.46 -2499.4L-783.376 -2504.32M-755.46 -2499.4M-755.46 -2499.4L-783.376 -2504.32M-653.898 -2451.96M-611.129 -2416.07L-635.678 -2430.24L-660.226 -2444.42L-684.775 -2458.59L-709.324 -2472.76L-733.873 -2486.94L-758.421 -2501.11M-733.873 -2486.94M-733.873 -2486.94L-761.788 -2491.86L-789.704 -2496.78M-761.788 -2491.86M-761.788 -2491.86M-660.226 -2444.42L-684.775 -2458.59L-709.324 -2472.76M-684.775 -2458.59M-684.775 -2458.59L-712.691 -2463.51L-740.607 -2468.43M-712.691 -2463.51M-712.691 -2463.51M-660.226 -2444.42L-684.775 -2458.59L-709.324 -2472.76M-501.804 -2285.78M-445.973 -2189.08L-464.193 -2210.79L-482.414 -2232.51L-500.635 -2254.22L-518.856 -2275.94L-537.076 -2297.65L-555.297 -2319.37L-573.518 -2341.08L-591.739 -2362.8L-609.959 -2384.51L-628.18 -2406.23L-646.401 -2427.94L-664.622 -2449.66M-646.401 -2427.94M-646.401 -2427.94L-670.95 -2442.11L-695.498 -2456.29M-670.95 -2442.11M-670.95 -2442.11L-695.498 -2456.29L-720.047 -2470.46L-744.596 -2484.63M-744.596 -2484.63M-744.596 -2484.63L-769.145 -2498.81L-797.061 -2503.73M-769.145 -2498.81L-787.365 -2520.52M-670.95 -2442.11M-628.18 -2406.23L-652.729 -2420.4L-677.278 -2434.57L-701.826 -2448.75L-726.375 -2462.92L-750.924 -2477.09M-750.924 -2477.09M-750.924 -2477.09L-775.473 -2491.27L-803.389 -2496.19M-775.473 -2491.27M-677.278 -2434.57L-701.826 -2448.75M-701.826 -2448.75M-701.826 -2448.75L-726.375 -2462.92L-754.291 -2467.84M-726.375 -2462.92M-677.278 -2434.57M-518.856 -2275.94L-537.076 -2297.65L-555.297 -2319.37L-564.992 -2346M-564.992 -2346M-564.992 -2346L-574.687 -2372.64L-592.908 -2394.36M-574.687 -2372.64M-555.297 -2319.37L-573.518 -2341.08L-591.739 -2362.8M-573.518 -2341.08M-573.518 -2341.08L-598.067 -2355.26L-622.615 -2369.43M-598.067 -2355.26M-598.067 -2355.26M-555.297 -2319.37L-573.518 -2341.08L-591.739 -2362.8L-616.287 -2376.97L-640.836 -2391.14L-665.385 -2405.32L-689.934 -2419.49M-665.385 -2405.32M-665.385 -2405.32L-693.301 -2410.24L-721.217 -2415.16M-693.301 -2410.24M-693.301 -2410.24M-591.739 -2362.8L-601.434 -2389.43L-611.129 -2416.07M-601.434 -2389.43M-601.434 -2389.43L-619.655 -2411.15L-637.875 -2432.86M-619.655 -2411.15M-619.655 -2411.15M-518.856 -2275.94L-537.076 -2297.65L-555.297 -2319.37L-573.518 -2341.08L-591.739 -2362.8M-329.632 -1869.44M-232.681 -1546.37L-250.902 -1568.09L-269.123 -1589.8L-287.344 -1611.52L-305.564 -1633.23L-323.785 -1654.95L-342.006 -1676.66L-360.227 -1698.38L-378.447 -1720.09L-396.668 -1741.81L-414.889 -1763.52L-433.11 -1785.23L-451.33 -1806.95L-469.551 -1828.66L-487.772 -1850.38L-505.993 -1872.09L-524.213 -1893.81L-542.434 -1915.52L-560.655 -1937.24L-578.876 -1958.95L-597.096 -1980.67L-615.317 -2002.38L-633.538 -2024.1L-643.233 -2050.73M-643.233 -2050.73M-643.233 -2050.73L-652.928 -2077.37L-671.149 -2099.08M-652.928 -2077.37M-633.538 -2024.1L-651.759 -2045.81L-669.979 -2067.53M-651.759 -2045.81M-651.759 -2045.81L-676.307 -2059.98L-700.856 -2074.16M-676.307 -2059.98M-676.307 -2059.98M-633.538 -2024.1L-651.759 -2045.81L-669.979 -2067.53L-694.528 -2081.7L-719.077 -2095.87L-743.626 -2110.04M-743.626 -2110.04M-743.626 -2110.04L-768.174 -2124.22L-796.09 -2129.14M-768.174 -2124.22M-669.979 -2067.53L-679.675 -2094.16L-689.37 -2120.8M-679.675 -2094.16M-679.675 -2094.16L-697.895 -2115.88L-716.116 -2137.59M-697.895 -2115.88M-697.895 -2115.88L-716.116 -2137.59L-734.337 -2159.31L-752.558 -2181.02L-770.778 -2202.74L-788.999 -2224.45L-807.22 -2246.16L-825.441 -2267.88M-825.441 -2267.88M-825.441 -2267.88L-843.661 -2289.59L-853.356 -2316.23M-843.661 -2289.59L-853.356 -2316.23L-863.051 -2342.87L-872.746 -2369.5L-882.442 -2396.14M-872.746 -2369.5M-872.746 -2369.5L-890.967 -2391.22L-909.188 -2412.93M-890.967 -2391.22M-890.967 -2391.22L-909.188 -2412.93M-843.661 -2289.59M-807.22 -2246.16L-831.769 -2260.34L-856.317 -2274.51L-880.866 -2288.68L-905.415 -2302.86L-929.964 -2317.03L-954.512 -2331.2M-929.964 -2317.03M-929.964 -2317.03L-957.879 -2321.95L-985.795 -2326.88M-957.879 -2321.95M-957.879 -2321.95M-856.317 -2274.51L-880.866 -2288.68M-880.866 -2288.68M-880.866 -2288.68L-905.415 -2302.86L-923.636 -2324.57M-905.415 -2302.86M-856.317 -2274.51L-880.866 -2288.68L-905.415 -2302.86M-697.895 -2115.88M-597.096 -1980.67L-621.645 -1994.84L-646.194 -2009.01L-670.743 -2023.19L-695.291 -2037.36L-719.84 -2051.53L-744.389 -2065.71L-768.938 -2079.88L-793.486 -2094.05L-818.035 -2108.23L-842.584 -2122.4L-867.133 -2136.57M-867.133 -2136.57M-867.133 -2136.57L-891.681 -2150.75L-919.597 -2155.67M-891.681 -2150.75L-909.902 -2172.46L-928.123 -2194.17L-946.344 -2215.89L-964.564 -2237.6M-946.344 -2215.89M-946.344 -2215.89L-970.892 -2230.06L-995.441 -2244.24M-970.892 -2230.06M-970.892 -2230.06L-995.441 -2244.24M-891.681 -2150.75M-842.584 -2122.4L-870.5 -2127.32L-898.416 -2132.24L-926.331 -2137.17L-954.247 -2142.09L-982.163 -2147.01M-982.163 -2147.01M-982.163 -2147.01L-1010.08 -2151.93L-1034.63 -2166.11M-1010.08 -2151.93M-898.416 -2132.24L-926.331 -2137.17L-954.247 -2142.09M-926.331 -2137.17M-926.331 -2137.17L-954.247 -2132.24L-982.163 -2127.32M-954.247 -2132.24M-954.247 -2132.24M-898.416 -2132.24M-695.291 -2037.36L-719.84 -2051.53L-744.389 -2065.71L-772.305 -2070.63M-772.305 -2070.63M-772.305 -2070.63L-800.221 -2075.55L-824.769 -2089.72M-800.221 -2075.55L-824.769 -2089.72L-849.318 -2103.9M-824.769 -2089.72M-824.769 -2089.72L-852.685 -2094.65L-880.601 -2099.57M-852.685 -2094.65M-852.685 -2094.65M-744.389 -2065.71L-772.305 -2060.78M-772.305 -2060.78M-772.305 -2060.78L-800.221 -2055.86L-824.769 -2041.69M-800.221 -2055.86M-744.389 -2065.71L-768.938 -2079.88L-793.486 -2094.05L-811.707 -2115.77L-829.928 -2137.48L-848.149 -2159.2L-866.369 -2180.91M-848.149 -2159.2M-848.149 -2159.2L-872.697 -2173.37L-897.246 -2187.54M-872.697 -2173.37M-872.697 -2173.37M-793.486 -2094.05L-811.707 -2115.77M-811.707 -2115.77M-811.707 -2115.77L-829.928 -2137.48L-839.623 -2164.12M-829.928 -2137.48M-695.291 -2037.36M-378.447 -1720.09L-396.668 -1741.81L-414.889 -1763.52L-433.11 -1785.23L-451.33 -1806.95L-475.879 -1821.12L-500.428 -1835.3L-518.649 -1857.01L-536.869 -1878.73M-518.649 -1857.01M-518.649 -1857.01L-543.197 -1871.18L-567.746 -1885.36M-543.197 -1871.18M-543.197 -1871.18M-500.428 -1835.3L-524.977 -1849.47M-524.977 -1849.47M-524.977 -1849.47L-549.525 -1863.64L-567.746 -1885.36M-549.525 -1863.64M-500.428 -1835.3L-524.977 -1849.47L-549.525 -1863.64L-577.441 -1868.56L-605.357 -1873.49L-633.273 -1878.41L-661.189 -1883.33M-633.273 -1878.41M-633.273 -1878.41L-661.189 -1873.49L-689.104 -1868.56M-661.189 -1873.49M-661.189 -1873.49M-549.525 -1863.64L-567.746 -1885.36M-567.746 -1885.36M-567.746 -1885.36L-585.967 -1907.07L-595.662 -1933.71M-585.967 -1907.07L-595.662 -1933.71L-605.357 -1960.35L-615.052 -1986.98L-624.747 -2013.62M-615.052 -1986.98M-615.052 -1986.98L-633.273 -2008.7L-651.494 -2030.41M-633.273 -2008.7M-633.273 -2008.7L-651.494 -2030.41L-669.714 -2052.13L-687.935 -2073.84L-706.156 -2095.56M-687.935 -2073.84M-687.935 -2073.84L-712.484 -2088.01L-737.033 -2102.19M-712.484 -2088.01M-712.484 -2088.01L-737.033 -2102.19M-633.273 -2008.7M-605.357 -1960.35L-623.578 -1982.06L-641.799 -2003.77L-660.019 -2025.49L-678.24 -2047.2L-696.461 -2068.92M-696.461 -2068.92M-696.461 -2068.92L-714.682 -2090.63L-739.23 -2104.81M-714.682 -2090.63M-641.799 -2003.77L-660.019 -2025.49M-660.019 -2025.49M-660.019 -2025.49L-678.24 -2047.2L-702.789 -2061.38M-678.24 -2047.2M-641.799 -2003.77M-451.33 -1806.95L-479.246 -1811.87L-507.162 -1816.79L-535.078 -1821.72M-535.078 -1821.72M-535.078 -1821.72L-562.994 -1826.64L-590.909 -1821.72M-562.994 -1826.64L-587.542 -1840.81L-612.091 -1854.99L-636.64 -1869.16M-636.64 -1869.16M-636.64 -1869.16L-661.189 -1883.33L-679.409 -1905.05M-661.189 -1883.33L-679.409 -1905.05M-562.994 -1826.64M-507.162 -1816.79L-535.078 -1811.87L-562.994 -1806.95L-590.909 -1802.03L-618.825 -1797.1L-646.741 -1792.18L-674.657 -1787.26M-646.741 -1792.18M-646.741 -1792.18L-671.29 -1778.01L-695.839 -1763.84M-671.29 -1778.01M-671.29 -1778.01M-562.994 -1806.95L-590.909 -1802.03M-590.909 -1802.03M-590.909 -1802.03L-618.825 -1797.1L-643.374 -1782.93M-618.825 -1797.1M-562.994 -1806.95M-451.33 -1806.95L-469.551 -1828.66L-487.772 -1850.38L-505.993 -1872.09L-524.213 -1893.81L-533.908 -1920.44L-543.604 -1947.08L-553.299 -1973.72L-562.994 -2000.36L-572.689 -2026.99L-582.384 -2053.63L-600.605 -2075.34L-618.825 -2097.06M-600.605 -2075.34M-600.605 -2075.34L-625.153 -2089.52L-649.702 -2103.69M-625.153 -2089.52M-625.153 -2089.52L-649.702 -2103.69M-649.702 -2103.69M-649.702 -2103.69L-674.251 -2117.86L-702.167 -2122.79M-674.251 -2117.86M-582.384 -2053.63L-606.933 -2067.8M-606.933 -2067.8M-606.933 -2067.8L-631.481 -2081.98L-649.702 -2103.69M-631.481 -2081.98M-582.384 -2053.63L-592.079 -2080.27L-601.774 -2106.9L-601.774 -2135.25L-601.774 -2163.6L-601.774 -2191.94L-601.774 -2220.29M-601.774 -2191.94M-601.774 -2191.94L-611.469 -2218.58L-621.164 -2245.22M-611.469 -2218.58M-611.469 -2218.58M-601.774 -2106.9L-601.774 -2135.25L-601.774 -2163.6M-601.774 -2135.25M-601.774 -2135.25L-611.469 -2161.89L-621.164 -2188.52M-611.469 -2161.89M-611.469 -2161.89M-524.213 -1893.81L-533.908 -1920.44L-543.604 -1947.08L-543.604 -1975.43L-543.604 -2003.77M-543.604 -1975.43M-543.604 -1975.43L-553.299 -2002.07L-562.994 -2028.7M-553.299 -2002.07M-553.299 -2002.07M-543.604 -1947.08L-553.299 -1973.72M-553.299 -1973.72M-553.299 -1973.72L-562.994 -2000.36L-562.994 -2028.7M-562.994 -2000.36M-543.604 -1947.08L-553.299 -1973.72L-562.994 -2000.36L-581.214 -2022.07L-599.435 -2043.79L-617.656 -2065.5L-635.877 -2087.21M-617.656 -2065.5M-617.656 -2065.5L-642.205 -2079.67L-666.753 -2093.85M-642.205 -2079.67M-642.205 -2079.67M-562.994 -2000.36L-562.994 -2028.7M-562.994 -2028.7M-562.994 -2028.7L-562.994 -2057.05L-572.689 -2083.69M-562.994 -2057.05M-378.447 -1720.09M5.5543e-14 -907.087L9.69506 -933.724L19.3901 -960.361L29.0852 -986.997L38.7802 -1013.63L48.4753 -1040.27L58.1704 -1066.91L67.8654 -1093.55L77.5605 -1120.18L77.5605 -1148.53L77.5605 -1176.88L77.5605 -1205.22L77.5605 -1233.57L77.5605 -1261.91L77.5605 -1290.26L67.8654 -1316.9L58.1704 -1343.53M67.8654 -1316.9M67.8654 -1316.9L49.6447 -1338.61L31.4239 -1360.33M49.6447 -1338.61M49.6447 -1338.61L31.4239 -1360.33M31.4239 -1360.33M31.4239 -1360.33L13.2032 -1382.04L3.5081 -1408.68M13.2032 -1382.04M77.5605 -1290.26L59.3397 -1311.98L41.119 -1333.69M59.3397 -1311.98M59.3397 -1311.98L34.791 -1326.15L10.2422 -1340.32M34.791 -1326.15M34.791 -1326.15M77.5605 -1290.26L77.5605 -1318.61L77.5605 -1346.95L87.2555 -1373.59L96.9506 -1400.23L106.646 -1426.86L116.341 -1453.5M106.646 -1426.86M106.646 -1426.86L106.646 -1455.21L106.646 -1483.56M106.646 -1455.21M106.646 -1455.21M77.5605 -1346.95L87.2555 -1373.59L96.9506 -1400.23M87.2555 -1373.59M87.2555 -1373.59L87.2555 -1401.94L87.2555 -1430.28M87.2555 -1401.94M87.2555 -1401.94L87.2555 -1430.28L87.2555 -1458.63L87.2555 -1486.98L87.2555 -1515.32L87.2555 -1543.67L87.2555 -1572.02L96.9506 -1598.65M96.9506 -1598.65M96.9506 -1598.65L106.646 -1625.29L106.646 -1653.64M106.646 -1625.29M87.2555 -1572.02L87.2555 -1600.36M87.2555 -1600.36M87.2555 -1600.36L87.2555 -1628.71L96.9506 -1655.35M87.2555 -1628.71M87.2555 -1572.02L87.2555 -1600.36L87.2555 -1628.71L77.5605 -1655.35L67.8654 -1681.98L58.1704 -1708.62L48.4753 -1735.26M58.1704 -1708.62M58.1704 -1708.62L39.9496 -1730.33L21.7289 -1752.05M39.9496 -1730.33M39.9496 -1730.33M87.2555 -1628.71L96.9506 -1655.35M96.9506 -1655.35M96.9506 -1655.35L106.646 -1681.98L106.646 -1710.33M106.646 -1681.98L124.866 -1703.7L143.087 -1725.41M87.2555 -1401.94M77.5605 -1233.57L67.8654 -1260.21L58.1704 -1286.84L48.4753 -1313.48L38.7802 -1340.12L29.0852 -1366.75L19.3901 -1393.39L9.69506 -1420.03L8.49714e-14 -1446.66L-9.69506 -1473.3L-19.3901 -1499.94L-29.0852 -1526.57M-29.0852 -1526.57M-29.0852 -1526.57L-38.7802 -1553.21L-57.001 -1574.93M-38.7802 -1553.21L-38.7802 -1581.56L-38.7802 -1609.9L-38.7802 -1638.25L-38.7802 -1666.6M-38.7802 -1638.25M-38.7802 -1638.25L-48.4753 -1664.89L-58.1704 -1691.52M-48.4753 -1664.89M-48.4753 -1664.89L-58.1704 -1691.52M-38.7802 -1553.21M-19.3901 -1499.94L-37.6109 -1521.65L-55.8316 -1543.37L-74.0524 -1565.08L-92.2731 -1586.8L-110.494 -1608.51L-128.715 -1630.23M-110.494 -1608.51M-110.494 -1608.51L-135.043 -1622.68L-159.591 -1636.86M-135.043 -1622.68M-135.043 -1622.68M-55.8316 -1543.37L-74.0524 -1565.08M-74.0524 -1565.08M-74.0524 -1565.08L-92.2731 -1586.8L-116.822 -1600.97M-92.2731 -1586.8M-55.8316 -1543.37M38.7802 -1340.12L29.0852 -1366.75L19.3901 -1393.39L9.69506 -1420.03M9.69506 -1420.03M9.69506 -1420.03L8.49714e-14 -1446.66L8.67071e-14 -1475.01M8.49714e-14 -1446.66L8.67071e-14 -1475.01L8.84428e-14 -1503.36L9.01786e-14 -1531.7L9.19143e-14 -1560.05M9.01786e-14 -1531.7M9.01786e-14 -1531.7L-9.69506 -1558.34L-19.3901 -1584.98M-9.69506 -1558.34M-9.69506 -1558.34L-19.3901 -1584.98M8.49714e-14 -1446.66M19.3901 -1393.39L1.16937 -1415.1L-17.0514 -1436.82L-35.2721 -1458.53L-53.4929 -1480.25L-71.7136 -1501.96M-71.7136 -1501.96M-71.7136 -1501.96L-89.9344 -1523.68L-99.6294 -1550.31M-89.9344 -1523.68M-17.0514 -1436.82L-35.2721 -1458.53M-35.2721 -1458.53M-35.2721 -1458.53L-53.4929 -1480.25L-78.0416 -1494.42M-53.4929 -1480.25M-17.0514 -1436.82M38.7802 -1340.12L29.0852 -1366.75L19.3901 -1393.39L9.69506 -1420.03L8.49714e-14 -1446.66L8.67071e-14 -1475.01L8.84428e-14 -1503.36L9.01786e-14 -1531.7L9.19143e-14 -1560.05M9.01786e-14 -1531.7M9.01786e-14 -1531.7L-9.69506 -1558.34L-19.3901 -1584.98M-9.69506 -1558.34M-9.69506 -1558.34L-19.3901 -1584.98L-29.0852 -1611.61L-38.7802 -1638.25L-48.4753 -1664.89M-38.7802 -1638.25M-38.7802 -1638.25L-57.001 -1659.97L-75.2217 -1681.68M-57.001 -1659.97M-57.001 -1659.97L-75.2217 -1681.68M-9.69506 -1558.34M8.84428e-14 -1503.36L-9.69506 -1529.99L-19.3901 -1556.63L-29.0852 -1583.27L-38.7802 -1609.9L-48.4753 -1636.54L-58.1704 -1663.18M-48.4753 -1636.54M-48.4753 -1636.54L-66.696 -1658.26L-84.9168 -1679.97M-66.696 -1658.26M-66.696 -1658.26M-19.3901 -1556.63L-29.0852 -1583.27M-29.0852 -1583.27M-29.0852 -1583.27L-38.7802 -1609.9L-57.001 -1631.62M-38.7802 -1609.9M-19.3901 -1556.63M8.49714e-14 -1446.66L-9.69506 -1473.3L-19.3901 -1499.94L-37.6109 -1521.65M-37.6109 -1521.65M-37.6109 -1521.65L-55.8316 -1543.37L-80.3804 -1557.54M-55.8316 -1543.37L-65.5267 -1570M-65.5267 -1570M-65.5267 -1570L-75.2217 -1596.64L-75.2217 -1624.99M-75.2217 -1596.64M-19.3901 -1499.94L-43.9389 -1514.11L-68.4876 -1528.28M-43.9389 -1514.11M-43.9389 -1514.11L-71.8547 -1519.03L-99.7705 -1523.96M-71.8547 -1519.03M-71.8547 -1519.03M-19.3901 -1499.94L-29.0852 -1526.57L-38.7802 -1553.21L-38.7802 -1581.56L-38.7802 -1609.9L-38.7802 -1638.25M-38.7802 -1638.25M-38.7802 -1638.25L-38.7802 -1666.6L-29.0852 -1693.23M-38.7802 -1666.6M-38.7802 -1553.21L-38.7802 -1581.56M-38.7802 -1581.56M-38.7802 -1581.56L-38.7802 -1609.9L-29.0852 -1636.54M-38.7802 -1609.9M8.49714e-14 -1446.66L-9.69506 -1473.3L-19.3901 -1499.94L-29.0852 -1526.57L-38.7802 -1553.21L-57.001 -1574.93L-75.2217 -1596.64L-93.4425 -1618.36L-111.663 -1640.07L-129.884 -1661.78L-148.105 -1683.5L-166.325 -1705.21M-166.325 -1705.21M-166.325 -1705.21L-184.546 -1726.93L-209.095 -1741.1M-184.546 -1726.93L-194.241 -1753.57L-203.936 -1780.2L-213.631 -1806.84L-223.326 -1833.48M-213.631 -1806.84M-213.631 -1806.84L-231.852 -1828.55L-250.073 -1850.27M-231.852 -1828.55M-231.852 -1828.55L-250.073 -1850.27M-184.546 -1726.93M-148.105 -1683.5L-172.653 -1697.67L-197.202 -1711.85L-221.751 -1726.02L-246.3 -1740.19L-270.849 -1754.37M-270.849 -1754.37M-270.849 -1754.37L-295.397 -1768.54L-313.618 -1790.25M-295.397 -1768.54M-197.202 -1711.85L-221.751 -1726.02L-246.3 -1740.19M-221.751 -1726.02M-221.751 -1726.02L-249.667 -1730.94L-277.583 -1735.86M-249.667 -1730.94M-249.667 -1730.94M-197.202 -1711.85M-38.7802 -1553.21L-38.7802 -1581.56L-38.7802 -1609.9L-38.7802 -1638.25M-38.7802 -1638.25M-38.7802 -1638.25L-38.7802 -1666.6L-29.0852 -1693.23M-38.7802 -1666.6L-29.0852 -1693.23L-19.3901 -1719.87L-9.69506 -1746.51M-9.69506 -1746.51M-9.69506 -1746.51L1.03854e-13 -1773.15L18.2208 -1794.86M1.03854e-13 -1773.15L18.2208 -1794.86M-38.7802 -1666.6M-38.7802 -1609.9L-48.4753 -1636.54L-58.1704 -1663.18L-67.8654 -1689.82L-77.5605 -1716.45L-87.2555 -1743.09M-87.2555 -1743.09M-87.2555 -1743.09L-96.9506 -1769.73L-96.9506 -1798.07M-96.9506 -1769.73M-58.1704 -1663.18L-67.8654 -1689.82M-67.8654 -1689.82M-67.8654 -1689.82L-77.5605 -1716.45L-95.7812 -1738.17M-77.5605 -1716.45M-58.1704 -1663.18M77.5605 -1120.18L67.8654 -1146.82L58.1704 -1173.46L48.4753 -1200.09L38.7802 -1226.73L20.5595 -1248.44L2.33873 -1270.16L-15.882 -1291.87M-15.882 -1291.87M-15.882 -1291.87L-34.1028 -1313.59L-58.6515 -1327.76M-34.1028 -1313.59L-43.7978 -1340.23L-53.4929 -1366.86L-63.1879 -1393.5L-72.883 -1420.14M-63.1879 -1393.5M-63.1879 -1393.5L-81.4087 -1415.21L-99.6294 -1436.93M-81.4087 -1415.21M-81.4087 -1415.21L-99.6294 -1436.93M-34.1028 -1313.59M2.33873 -1270.16L-22.21 -1284.33L-46.7588 -1298.51L-71.3075 -1312.68L-95.8563 -1326.85L-120.405 -1341.03M-120.405 -1341.03M-120.405 -1341.03L-144.954 -1355.2L-172.87 -1360.12M-144.954 -1355.2M-46.7588 -1298.51L-71.3075 -1312.68L-95.8563 -1326.85M-71.3075 -1312.68M-71.3075 -1312.68L-99.2233 -1317.6L-127.139 -1322.52M-99.2233 -1317.6M-99.2233 -1317.6M-46.7588 -1298.51L-71.3075 -1312.68L-95.8563 -1326.85L-120.405 -1341.03L-144.954 -1355.2M-120.405 -1341.03M-120.405 -1341.03L-148.321 -1345.95L-176.237 -1350.87M-148.321 -1345.95M-148.321 -1345.95L-176.237 -1350.87L-204.152 -1355.79L-232.068 -1360.71L-259.984 -1365.64M-232.068 -1360.71M-232.068 -1360.71L-259.984 -1355.79L-287.9 -1350.87M-259.984 -1355.79M-259.984 -1355.79L-287.9 -1350.87M-148.321 -1345.95M-95.8563 -1326.85L-123.772 -1331.77L-151.688 -1336.7L-179.604 -1341.62L-207.52 -1346.54L-235.435 -1351.46L-263.351 -1356.39M-235.435 -1351.46M-235.435 -1351.46L-263.351 -1346.54L-291.267 -1341.62M-263.351 -1346.54M-263.351 -1346.54M-151.688 -1336.7L-179.604 -1341.62M-179.604 -1341.62M-179.604 -1341.62L-207.52 -1346.54L-232.068 -1360.71M-207.52 -1346.54M-151.688 -1336.7M38.7802 -1226.73L14.2315 -1240.9L-10.3173 -1255.08L-28.538 -1276.79L-46.7588 -1298.51M-28.538 -1276.79M-28.538 -1276.79L-53.0868 -1290.96L-77.6355 -1305.14M-53.0868 -1290.96M-53.0868 -1290.96M-10.3173 -1255.08L-34.866 -1269.25M-34.866 -1269.25M-34.866 -1269.25L-59.4148 -1283.42L-77.6355 -1305.14M-59.4148 -1283.42M-10.3173 -1255.08L-34.866 -1269.25L-59.4148 -1283.42L-87.3306 -1288.35L-115.246 -1293.27L-143.162 -1298.19M-143.162 -1298.19M-143.162 -1298.19L-171.078 -1303.11L-198.994 -1298.19M-171.078 -1303.11M-59.4148 -1283.42L-77.6355 -1305.14L-95.8563 -1326.85M-77.6355 -1305.14M-77.6355 -1305.14L-102.184 -1319.31L-126.733 -1333.48M-102.184 -1319.31M-102.184 -1319.31M38.7802 -1226.73L29.0852 -1253.37L19.3901 -1280L9.69506 -1306.64L8.49714e-14 -1333.28L8.67071e-14 -1361.62L8.84428e-14 -1389.97L9.01786e-14 -1418.32L9.19143e-14 -1446.66L9.365e-14 -1475.01L9.53857e-14 -1503.36L-9.69506 -1529.99L-19.3901 -1556.63M-9.69506 -1529.99M-9.69506 -1529.99L-27.9158 -1551.71L-46.1366 -1573.42M-27.9158 -1551.71M-27.9158 -1551.71L-46.1366 -1573.42M-46.1366 -1573.42M-46.1366 -1573.42L-64.3573 -1595.14L-74.0524 -1621.77M-64.3573 -1595.14M9.53857e-14 -1503.36L-18.2208 -1525.07M-18.2208 -1525.07M-18.2208 -1525.07L-36.4415 -1546.79L-46.1366 -1573.42M-36.4415 -1546.79M9.53857e-14 -1503.36L9.71214e-14 -1531.7L9.88572e-14 -1560.05L9.69506 -1586.69L19.3901 -1613.32L29.0852 -1639.96L38.7802 -1666.6M29.0852 -1639.96M29.0852 -1639.96L29.0852 -1668.31L29.0852 -1696.65M29.0852 -1668.31M29.0852 -1668.31M9.88572e-14 -1560.05L9.69506 -1586.69M9.69506 -1586.69M9.69506 -1586.69L19.3901 -1613.32L37.6109 -1635.04M19.3901 -1613.32M8.49714e-14 -1333.28L8.67071e-14 -1361.62L8.84428e-14 -1389.97L9.01786e-14 -1418.32L9.19143e-14 -1446.66M9.01786e-14 -1418.32M9.01786e-14 -1418.32L-9.69506 -1444.95L-19.3901 -1471.59M-9.69506 -1444.95M-9.69506 -1444.95L-19.3901 -1471.59L-29.0852 -1498.23L-38.7802 -1524.87M-38.7802 -1524.87M-38.7802 -1524.87L-48.4753 -1551.5L-48.4753 -1579.85M-48.4753 -1551.5L-48.4753 -1579.85M-9.69506 -1444.95M8.84428e-14 -1389.97L-9.69506 -1416.61L-19.3901 -1443.24L-29.0852 -1469.88L-38.7802 -1496.52L-48.4753 -1523.16L-58.1704 -1549.79M-48.4753 -1523.16M-48.4753 -1523.16L-66.696 -1544.87L-84.9168 -1566.58M-66.696 -1544.87M-66.696 -1544.87M-19.3901 -1443.24L-29.0852 -1469.88M-29.0852 -1469.88M-29.0852 -1469.88L-38.7802 -1496.52L-38.7802 -1524.87M-38.7802 -1496.52M-19.3901 -1443.24M77.5605 -1120.18L87.2555 -1146.82L96.9506 -1173.46L106.646 -1200.09L116.341 -1226.73L126.036 -1253.37L135.731 -1280L145.426 -1306.64L155.121 -1333.28L173.342 -1354.99L191.562 -1376.71L209.783 -1398.42L228.004 -1420.14L246.225 -1441.85L264.445 -1463.57L282.666 -1485.28L300.887 -1507L319.108 -1528.71L337.328 -1550.42L355.549 -1572.14L373.77 -1593.85L391.991 -1615.57L410.211 -1637.28L434.76 -1651.46L459.309 -1665.63M434.76 -1651.46M434.76 -1651.46L452.981 -1673.17L471.202 -1694.89M452.981 -1673.17M452.981 -1673.17M410.211 -1637.28L428.432 -1659L446.653 -1680.71M428.432 -1659M428.432 -1659L438.127 -1685.63L447.822 -1712.27M438.127 -1685.63M438.127 -1685.63M410.211 -1637.28L428.432 -1659L446.653 -1680.71L456.348 -1707.35L466.043 -1733.99L475.738 -1760.62L485.433 -1787.26M475.738 -1760.62M475.738 -1760.62L475.738 -1788.97L475.738 -1817.32M475.738 -1788.97M475.738 -1788.97M446.653 -1680.71L471.202 -1694.89M471.202 -1694.89M471.202 -1694.89L495.75 -1709.06L523.666 -1713.98M495.75 -1709.06L523.666 -1713.98L551.582 -1718.9L579.498 -1723.83L607.414 -1728.75L635.33 -1733.67L663.245 -1738.59L691.161 -1743.51L719.077 -1748.44M691.161 -1743.51M691.161 -1743.51L715.71 -1757.69L740.259 -1771.86M715.71 -1757.69M715.71 -1757.69L740.259 -1771.86L764.807 -1786.03L789.356 -1800.21M789.356 -1800.21M789.356 -1800.21L813.905 -1814.38L832.126 -1836.1M813.905 -1814.38L841.821 -1819.3M715.71 -1757.69M663.245 -1738.59L687.794 -1752.77L712.343 -1766.94L736.892 -1781.11L761.44 -1795.29L785.989 -1809.46M785.989 -1809.46M785.989 -1809.46L810.538 -1823.63L838.454 -1828.55M810.538 -1823.63M712.343 -1766.94L736.892 -1781.11L761.44 -1795.29M736.892 -1781.11M736.892 -1781.11L755.112 -1802.83L773.333 -1824.54M755.112 -1802.83M755.112 -1802.83M712.343 -1766.94L736.892 -1781.11L761.44 -1795.29M495.75 -1709.06M373.77 -1593.85L383.465 -1620.49L393.16 -1647.13L402.855 -1673.76L412.55 -1700.4L422.245 -1727.04L431.94 -1753.68L441.635 -1780.31L451.33 -1806.95L461.025 -1833.59L470.721 -1860.22L488.941 -1881.94M488.941 -1881.94M488.941 -1881.94L507.162 -1903.65L516.857 -1930.29M507.162 -1903.65M470.721 -1860.22L480.416 -1886.86L490.111 -1913.5M480.416 -1886.86M480.416 -1886.86L480.416 -1915.21L480.416 -1943.55M480.416 -1915.21M480.416 -1915.21M470.721 -1860.22L480.416 -1886.86L490.111 -1913.5L490.111 -1941.84L490.111 -1970.19L490.111 -1998.54L490.111 -2026.88M490.111 -1998.54M490.111 -1998.54L480.416 -2025.17L470.721 -2051.81M480.416 -2025.17M480.416 -2025.17M490.111 -1913.5L508.331 -1935.21M508.331 -1935.21M508.331 -1935.21L526.552 -1956.93L551.101 -1971.1M526.552 -1956.93M412.55 -1700.4L422.245 -1727.04L431.94 -1753.68L441.635 -1780.31L451.33 -1806.95M441.635 -1780.31M441.635 -1780.31L441.635 -1808.66L441.635 -1837.01M441.635 -1808.66M441.635 -1808.66L441.635 -1837.01L441.635 -1865.35L441.635 -1893.7M441.635 -1893.7M441.635 -1893.7L441.635 -1922.04L451.33 -1948.68M441.635 -1922.04L451.33 -1948.68M441.635 -1808.66M431.94 -1753.68L431.94 -1782.02L431.94 -1810.37L431.94 -1838.71L431.94 -1867.06L431.94 -1895.41M431.94 -1895.41M431.94 -1895.41L431.94 -1923.75L422.245 -1950.39M431.94 -1923.75M431.94 -1810.37L431.94 -1838.71L431.94 -1867.06M431.94 -1838.71M431.94 -1838.71L422.245 -1865.35L412.55 -1891.99M422.245 -1865.35M422.245 -1865.35M431.94 -1810.37M412.55 -1700.4M155.121 -1333.28L173.342 -1354.99L191.562 -1376.71L209.783 -1398.42L228.004 -1420.14L237.699 -1446.77L247.394 -1473.41L257.089 -1500.05M257.089 -1500.05M257.089 -1500.05L266.784 -1526.68L285.005 -1548.4M266.784 -1526.68L285.005 -1548.4L303.226 -1570.11L321.446 -1591.83M321.446 -1591.83M321.446 -1591.83L339.667 -1613.54L349.362 -1640.18M339.667 -1613.54L364.216 -1627.72M266.784 -1526.68M247.394 -1473.41L247.394 -1501.76L247.394 -1530.1L247.394 -1558.45L247.394 -1586.8L247.394 -1615.14L247.394 -1643.49M247.394 -1615.14M247.394 -1615.14L237.699 -1641.78L228.004 -1668.42M237.699 -1641.78M237.699 -1641.78M247.394 -1530.1L247.394 -1558.45L247.394 -1586.8M247.394 -1558.45M247.394 -1558.45L237.699 -1585.09L228.004 -1611.72M237.699 -1585.09M237.699 -1585.09M247.394 -1530.1L247.394 -1558.45L247.394 -1586.8L257.089 -1613.43M257.089 -1613.43M257.089 -1613.43L266.784 -1640.07L266.784 -1668.42M266.784 -1640.07M247.394 -1586.8L247.394 -1615.14L247.394 -1643.49M247.394 -1615.14M247.394 -1615.14L237.699 -1641.78L228.004 -1668.42M237.699 -1641.78M237.699 -1641.78M247.394 -1586.8L247.394 -1615.14L247.394 -1643.49L237.699 -1670.13L228.004 -1696.76L218.309 -1723.4L208.614 -1750.04M218.309 -1723.4M218.309 -1723.4L200.088 -1745.11L181.867 -1766.83M200.088 -1745.11M200.088 -1745.11M247.394 -1643.49L257.089 -1670.13L266.784 -1696.76M257.089 -1670.13M257.089 -1670.13L257.089 -1698.47L257.089 -1726.82M257.089 -1698.47M257.089 -1698.47M228.004 -1420.14L228.004 -1448.48L228.004 -1476.83L228.004 -1505.18M228.004 -1505.18M228.004 -1505.18L228.004 -1533.52L218.309 -1560.16M228.004 -1533.52L237.699 -1560.16L247.394 -1586.8L257.089 -1613.43L266.784 -1640.07M257.089 -1613.43M257.089 -1613.43L257.089 -1641.78L257.089 -1670.13M257.089 -1641.78M257.089 -1641.78L257.089 -1670.13M228.004 -1533.52M228.004 -1476.83L218.309 -1503.47L208.614 -1530.1L198.919 -1556.74L189.224 -1583.38L179.529 -1610.01L169.834 -1636.65M179.529 -1610.01M179.529 -1610.01L161.308 -1631.73L143.087 -1653.44M161.308 -1631.73M161.308 -1631.73M208.614 -1530.1L198.919 -1556.74L189.224 -1583.38M198.919 -1556.74M198.919 -1556.74L180.698 -1578.45L162.477 -1600.17M180.698 -1578.45M180.698 -1578.45M208.614 -1530.1M228.004 -1420.14L246.225 -1441.85L264.445 -1463.57L282.666 -1485.28L300.887 -1507L325.436 -1521.17L349.984 -1535.34L374.533 -1549.51L399.082 -1563.69L423.631 -1577.86L448.179 -1592.03L466.4 -1613.75M466.4 -1613.75M466.4 -1613.75L484.621 -1635.46L494.316 -1662.1M484.621 -1635.46L509.17 -1649.64M509.17 -1649.64M509.17 -1649.64L533.718 -1663.81L551.939 -1685.52M533.718 -1663.81M448.179 -1592.03L457.875 -1618.67M457.875 -1618.67M457.875 -1618.67L467.57 -1645.31L467.57 -1673.65M467.57 -1645.31M448.179 -1592.03L472.728 -1606.21L497.277 -1620.38L525.193 -1625.3L553.109 -1630.23L581.024 -1635.15M581.024 -1635.15M581.024 -1635.15L608.94 -1640.07L636.856 -1635.15M608.94 -1640.07M497.277 -1620.38L525.193 -1625.3M525.193 -1625.3M525.193 -1625.3L553.109 -1630.23L581.024 -1625.3M553.109 -1630.23M300.887 -1507L325.436 -1521.17L349.984 -1535.34L374.533 -1549.51L399.082 -1563.69M374.533 -1549.51M374.533 -1549.51L392.754 -1571.23L410.975 -1592.94M392.754 -1571.23M392.754 -1571.23L410.975 -1592.94L429.195 -1614.66L447.416 -1636.37M447.416 -1636.37M447.416 -1636.37L465.637 -1658.09L475.332 -1684.72M465.637 -1658.09L490.186 -1672.26M392.754 -1571.23M349.984 -1535.34L368.205 -1557.06L386.426 -1578.77L404.647 -1600.49L422.867 -1622.2L441.088 -1643.91M441.088 -1643.91M441.088 -1643.91L459.309 -1665.63L469.004 -1692.27M459.309 -1665.63M386.426 -1578.77L404.647 -1600.49L422.867 -1622.2M404.647 -1600.49M404.647 -1600.49L414.342 -1627.12L424.037 -1653.76M414.342 -1627.12M414.342 -1627.12M386.426 -1578.77" stroke="black"/>
 </g>
 <path d="M193.476 -860.045L193.476 -860.053A4.25197 4.25197 0 0 0 184.972 -860.045A4.25197 4.25197 0 0 0 193.476 -860.038Z" fill="#f00"/>
 <path d="M223.73 -971.515L223.73 -971.523A4.25197 4.25197 0 0 0 215.226 -971.515A4.25197 4.25197 0 0 0 223.73 -971.508Z" fill="#f00"/>
 <path d="M215.205 -976.438L215.205 -976.445A4.25197 4.25197 0 0 0 206.701 -976.438A4.25197 4.25197 0 0 0 215.205 -976.43Z" fill="#f00"/>
 <path d="M195.814 -923.164L195.814 -923.171A4.25197 4.25197 0 0 0 187.31 -923.164A4.25197 4.25197 0 0 0 195.814 -923.156Z" fill="#f00"/>
 <path d="M198.153 -1213.05L198.153 -1213.06A4.25197 4.25197 0 0 0 189.649 -1213.05A4.25197 4.25197 0 0 0 198.153 -1213.05Z" fill="#f00"/>
 <path d="M101.203 -1209.64L101.203 -1209.64A4.25197 4.25197 0 0 0 92.6986 -1209.64A4.25197 4.25197 0 0 0 101.203 -1209.63Z" fill="#f00"/>
 <path d="M120.593 -1156.36L120.593 -1156.37A4.25197 4.25197 0 0 0 112.089 -1156.36A4.25197 4.25197 0 0 0 120.593 -1156.35Z" fill="#f00"/>
 <path d="M251.646 -1019.87L251.646 -1019.87A4.25197 4.25197 0 0 0 243.142 -1019.87A4.25197 4.25197 0 0 0 251.646 -1019.86Z" fill="#f00"/>
 <path d="M195.814 -979.857L195.814 -979.864A4.25197 4.25197 0 0 0 187.31 -979.857A4.25197 4.25197 0 0 0 195.814 -979.849Z" fill="#f00"/>
 <path d="M714.538 -1110.7L714.538 -1110.71A4.25197 4.25197 0 0 0 706.034 -1110.7A4.25197 4.25197 0 0 0 714.538 -1110.69Z" fill="#f00"/>
 <path d="M781.093 -1205.1L781.093 -1205.11A4.25197 4.25197 0 0 0 772.589 -1205.1A4.25197 4.25197 0 0 0 781.093 -1205.09Z" fill="#f00"/>
 <path d="M774.765 -1212.64L774.765 -1212.65A4.25197 4.25197 0 0 0 766.261 -1212.64A4.25197 4.25197 0 0 0 774.765 -1212.63Z" fill="#f00"/>
 <path d="M796.494 -1329.03L796.494 -1329.04A4.25197 4.25197 0 0 0 787.99 -1329.03A4.25197 4.25197 0 0 0 796.494 -1329.03Z" fill="#f00"/>
 <path d="M777.104 -1275.76L777.104 -1275.77A4.25197 4.25197 0 0 0 768.6 -1275.76A4.25197 4.25197 0 0 0 777.104 -1275.75Z" fill="#f00"/>
 <path d="M689.226 -1140.87L689.226 -1140.87A4.25197 4.25197 0 0 0 680.722 -1140.87A4.25197 4.25197 0 0 0 689.226 -1140.86Z" fill="#f00"/>
 <path d="M691.565 -1203.98L691.565 -1203.99A4.25197 4.25197 0 0 0 683.061 -1203.98A4.25197 4.25197 0 0 0 691.565 -1203.98Z" fill="#f00"/>
 <path d="M951.333 -1034.32L951.333 -1034.33A4.25197 4.25197 0 0 0 942.829 -1034.32A4.25197 4.25197 0 0 0 951.333 -1034.31Z" fill="#f00"/>
 <path d="M832.936 -1035.51L832.936 -1035.51A4.25197 4.25197 0 0 0 824.432 -1035.51A4.25197 4.25197 0 0 0 832.936 -1035.5Z" fill="#f00"/>
 <path d="M120.593 -1396.81L120.593 -1396.82A4.25197 4.25197 0 0 0 112.089 -1396.81A4.25197 4.25197 0 0 0 120.593 -1396.8Z" fill="#f00"/>
 <path d="M193.476 -1426.97L193.476 -1426.98A4.25197 4.25197 0 0 0 184.972 -1426.97A4.25197 4.25197 0 0 0 193.476 -1426.97Z" fill="#f00"/>
 <path d="M81.8124 -1346.95L81.8124 -1346.96A4.25197 4.25197 0 0 0 73.3085 -1346.95A4.25197 4.25197 0 0 0 81.8124 -1346.95Z" fill="#f00"/>
 <path d="M33.3371 -1451.79L33.3371 -1451.8A4.25197 4.25197 0 0 0 24.8332 -1451.79A4.25197 4.25197 0 0 0 33.3371 -1451.78Z" fill="#f00"/>
 <path d="M23.6421 -1450.08L23.6421 -1450.09A4.25197 4.25197 0 0 0 15.1381 -1450.08A4.25197 4.25197 0 0 0 23.6421 -1450.08Z" fill="#f00"/>
 <path d="M43.0322 -1396.81L43.0322 -1396.82A4.25197 4.25197 0 0 0 34.5283 -1396.81A4.25197 4.25197 0 0 0 43.0322 -1396.8Z" fill="#f00"/>
 <path d="M4.25197 -1560.05L4.25196 -1560.06A4.25197 4.25197 0 0 0 -4.25197 -1560.05A4.25197 4.25197 0 0 0 4.25196 -1560.04Z" fill="#f00"/>
 <path d="M-85.6824 -1637.06L-85.6824 -1637.07A4.25197 4.25197 0 0 0 -94.1864 -1637.06A4.25197 4.25197 0 0 0 -85.6824 -1637.06Z" fill="#f00"/>
 <path d="M-49.2409 -1593.63L-49.2409 -1593.64A4.25197 4.25197 0 0 0 -57.7449 -1593.63A4.25197 4.25197 0 0 0 -49.2409 -1593.63Z" fill="#f00"/>
 <path d="M193.476 -1540.36L193.476 -1540.37A4.25197 4.25197 0 0 0 184.972 -1540.36A4.25197 4.25197 0 0 0 193.476 -1540.35Z" fill="#f00"/>
 <path d="M101.203 -1570.31L101.203 -1570.31A4.25197 4.25197 0 0 0 92.6986 -1570.31A4.25197 4.25197 0 0 0 101.203 -1570.3Z" fill="#f00"/>
 <path d="M101.203 -1513.61L101.203 -1513.62A4.25197 4.25197 0 0 0 92.6986 -1513.61A4.25197 4.25197 0 0 0 101.203 -1513.61Z" fill="#f00"/>
 <path d="M62.4223 -1116.76L62.4223 -1116.77A4.25197 4.25197 0 0 0 53.9184 -1116.76A4.25197 4.25197 0 0 0 62.4223 -1116.76Z" fill="#f00"/>
 <path d="M17.4551 -1155.27L17.4551 -1155.28A4.25197 4.25197 0 0 0 8.95119 -1155.27A4.25197 4.25197 0 0 0 17.4551 -1155.26Z" fill="#f00"/>
 <path d="M101.203 -1173.46L101.203 -1173.46A4.25197 4.25197 0 0 0 92.6986 -1173.46A4.25197 4.25197 0 0 0 101.203 -1173.45Z" fill="#f00"/>
 <path d="M33.3371 -1505.07L33.3371 -1505.07A4.25197 4.25197 0 0 0 24.8332 -1505.07A4.25197 4.25197 0 0 0 33.3371 -1505.06Z" fill="#f00"/>
 <path d="M52.7273 -1451.79L52.7273 -1451.8A4.25197 4.25197 0 0 0 44.2233 -1451.79A4.25197 4.25197 0 0 0 52.7273 -1451.78Z" fill="#f00"/>
 <path d="M-34.5283 -1439.83L-34.5283 -1439.83A4.25197 4.25197 0 0 0 -43.0322 -1439.83A4.25197 4.25197 0 0 0 -34.5283 -1439.82Z" fill="#f00"/>
 <path d="M-124.463 -1403.45L-124.463 -1403.46A4.25197 4.25197 0 0 0 -132.967 -1403.45A4.25197 4.25197 0 0 0 -124.463 -1403.45Z" fill="#f00"/>
 <path d="M-15.1381 -903.668L-15.1382 -903.675A4.25197 4.25197 0 0 0 -23.6421 -903.668A4.25197 4.25197 0 0 0 -15.1382 -903.66Z" fill="#f00"/>
 <path d="M43.0322 -1013.63L43.0322 -1013.64A4.25197 4.25197 0 0 0 34.5283 -1013.63A4.25197 4.25197 0 0 0 43.0322 -1013.63Z" fill="#f00"/>
 <path d="M267.603 -1190.77L267.603 -1190.78A4.25197 4.25197 0 0 0 259.099 -1190.77A4.25197 4.25197 0 0 0 267.603 -1190.76Z" fill="#f00"/>
 <path d="M218.506 -1162.42L218.506 -1162.43A4.25197 4.25197 0 0 0 210.002 -1162.42A4.25197 4.25197 0 0 0 218.506 -1162.42Z" fill="#f00"/>
 <path d="M-92.6986 -1116.76L-92.6986 -1116.77A4.25197 4.25197 0 0 0 -101.203 -1116.76A4.25197 4.25197 0 0 0 -92.6986 -1116.76Z" fill="#f00"/>
 <path d="M-112.089 -1113.34L-112.089 -1113.35A4.25197 4.25197 0 0 0 -120.593 -1113.34A4.25197 4.25197 0 0 0 -112.089 -1113.34Z" fill="#f00"/>
 <path d="M-184.972 -1200.2L-184.972 -1200.21A4.25197 4.25197 0 0 0 -193.476 -1200.2A4.25197 4.25197 0 0 0 -184.972 -1200.2Z" fill="#f00"/>
 <path d="M-73.3085 -1120.18L-73.3085 -1120.19A4.25197 4.25197 0 0 0 -81.8124 -1120.18A4.25197 4.25197 0 0 0 -73.3085 -1120.17Z" fill="#f00"/>
 <path d="M-279.584 -1403.45L-279.584 -1403.46A4.25197 4.25197 0 0 0 -288.088 -1403.45A4.25197 4.25197 0 0 0 -279.584 -1403.45Z" fill="#f00"/>
 <path d="M-243.142 -1360.02L-243.142 -1360.03A4.25197 4.25197 0 0 0 -251.646 -1360.02A4.25197 4.25197 0 0 0 -243.142 -1360.02Z" fill="#f00"/>
 <path d="M-463.318 -1531.92L-463.318 -1531.93A4.25197 4.25197 0 0 0 -471.822 -1531.92A4.25197 4.25197 0 0 0 -463.318 -1531.92Z" fill="#f00"/>
 <path d="M-352.467 -1490.31L-352.467 -1490.32A4.25197 4.25197 0 0 0 -360.971 -1490.31A4.25197 4.25197 0 0 0 -352.467 -1490.31Z" fill="#f00"/>
 <path d="M-369.518 -1480.47L-369.518 -1480.48A4.25197 4.25197 0 0 0 -378.022 -1480.47A4.25197 4.25197 0 0 0 -369.518 -1480.46Z" fill="#f00"/>
 <path d="M-388.908 -1533.74L-388.908 -1533.75A4.25197 4.25197 0 0 0 -397.412 -1533.74A4.25197 4.25197 0 0 0 -388.908 -1533.73Z" fill="#f00"/>
 <path d="M-296.635 -1393.61L-296.635 -1393.62A4.25197 4.25197 0 0 0 -305.139 -1393.61A4.25197 4.25197 0 0 0 -296.635 -1393.6Z" fill="#f00"/>
 <path d="M-401.158 -1442.76L-401.158 -1442.77A4.25197 4.25197 0 0 0 -409.662 -1442.76A4.25197 4.25197 0 0 0 -401.158 -1442.75Z" fill="#f00"/>
 <path d="M-407.486 -1435.22L-407.486 -1435.23A4.25197 4.25197 0 0 0 -415.99 -1435.22A4.25197 4.25197 0 0 0 -407.486 -1435.21Z" fill="#f00"/>
 <path d="M-358.388 -1406.87L-358.388 -1406.88A4.25197 4.25197 0 0 0 -366.892 -1406.87A4.25197 4.25197 0 0 0 -358.388 -1406.87Z" fill="#f00"/>
 <path d="M-209.039 -1379.71L-209.039 -1379.72A4.25197 4.25197 0 0 0 -217.543 -1379.71A4.25197 4.25197 0 0 0 -209.039 -1379.71Z" fill="#f00"/>
 <path d="M-226.091 -1313.18L-226.091 -1313.18A4.25197 4.25197 0 0 0 -234.595 -1313.18A4.25197 4.25197 0 0 0 -226.091 -1313.17Z" fill="#f00"/>
 <path d="M-150.869 -1432.99L-150.869 -1433A4.25197 4.25197 0 0 0 -159.373 -1432.99A4.25197 4.25197 0 0 0 -150.869 -1432.98Z" fill="#f00"/>
 <path d="M-228.429 -1432.99L-228.429 -1433A4.25197 4.25197 0 0 0 -236.933 -1432.99A4.25197 4.25197 0 0 0 -228.429 -1432.98Z" fill="#f00"/>
 <path d="M-318.364 -1396.62L-318.364 -1396.62A4.25197 4.25197 0 0 0 -326.868 -1396.62A4.25197 4.25197 0 0 0 -318.364 -1396.61Z" fill="#f00"/>
 <path d="M-281.922 -1353.19L-281.922 -1353.19A4.25197 4.25197 0 0 0 -290.426 -1353.19A4.25197 4.25197 0 0 0 -281.922 -1353.18Z" fill="#f00"/>
 <path d="M-472.39 -1550.01L-472.39 -1550.02A4.25197 4.25197 0 0 0 -480.894 -1550.01A4.25197 4.25197 0 0 0 -472.39 -1550Z" fill="#f00"/>
 <path d="M-247.82 -1429.57L-247.82 -1429.58A4.25197 4.25197 0 0 0 -256.324 -1429.57A4.25197 4.25197 0 0 0 -247.82 -1429.56Z" fill="#f00"/>
 <path d="M-292.787 -1468.08L-292.787 -1468.08A4.25197 4.25197 0 0 0 -301.291 -1468.08A4.25197 4.25197 0 0 0 -292.787 -1468.07Z" fill="#f00"/>
 <path d="M-264.871 -1419.72L-264.871 -1419.73A4.25197 4.25197 0 0 0 -273.375 -1419.72A4.25197 4.25197 0 0 0 -264.871 -1419.72Z" fill="#f00"/>
 <path d="M-167.92 -1096.66L-167.92 -1096.67A4.25197 4.25197 0 0 0 -176.424 -1096.66A4.25197 4.25197 0 0 0 -167.92 -1096.65Z" fill="#f00"/>
 <path d="M-223.346 -1117.47L-223.346 -1117.47A4.25197 4.25197 0 0 0 -231.85 -1117.47A4.25197 4.25197 0 0 0 -223.346 -1117.46Z" fill="#f00"/>
 <path d="M-150.869 -1219.89L-150.869 -1219.9A4.25197 4.25197 0 0 0 -159.373 -1219.89A4.25197 4.25197 0 0 0 -150.869 -1219.88Z" fill="#f00"/>
 <path d="M-150.869 -1163.2L-150.869 -1163.21A4.25197 4.25197 0 0 0 -159.373 -1163.2A4.25197 4.25197 0 0 0 -150.869 -1163.19Z" fill="#f00"/>
 <path d="M-311.008 -1461.44L-311.008 -1461.45A4.25197 4.25197 0 0 0 -319.511 -1461.44A4.25197 4.25197 0 0 0 -311.008 -1461.44Z" fill="#f00"/>
 <path d="M-343.394 -1245.45L-343.394 -1245.46A4.25197 4.25197 0 0 0 -351.898 -1245.45A4.25197 4.25197 0 0 0 -343.394 -1245.44Z" fill="#f00"/>
 <path d="M-350.128 -1226.95L-350.128 -1226.96A4.25197 4.25197 0 0 0 -358.632 -1226.95A4.25197 4.25197 0 0 0 -350.128 -1226.94Z" fill="#f00"/>
 <path d="M-350.128 -1313.81L-350.128 -1313.82A4.25197 4.25197 0 0 0 -358.632 -1313.81A4.25197 4.25197 0 0 0 -350.128 -1313.8Z" fill="#f00"/>
 <path d="M-240.803 -1183.52L-240.803 -1183.53A4.25197 4.25197 0 0 0 -249.307 -1183.52A4.25197 4.25197 0 0 0 -240.803 -1183.51Z" fill="#f00"/>
 <path d="M-277.245 -1226.95L-277.245 -1226.96A4.25197 4.25197 0 0 0 -285.749 -1226.95A4.25197 4.25197 0 0 0 -277.245 -1226.94Z" fill="#f00"/>
 <path d="M-267.21 -1766.31L-267.21 -1766.31A4.25197 4.25197 0 0 0 -275.714 -1766.31A4.25197 4.25197 0 0 0 -267.21 -1766.3Z" fill="#f00"/>
 <path d="M-305.99 -1872.86L-305.99 -1872.86A4.25197 4.25197 0 0 0 -314.494 -1872.86A4.25197 4.25197 0 0 0 -305.99 -1872.85Z" fill="#f00"/>
 <path d="M-395.924 -1836.48L-395.924 -1836.49A4.25197 4.25197 0 0 0 -404.428 -1836.48A4.25197 4.25197 0 0 0 -395.924 -1836.48Z" fill="#f00"/>
 <path d="M-359.483 -1793.05L-359.483 -1793.06A4.25197 4.25197 0 0 0 -367.987 -1793.05A4.25197 4.25197 0 0 0 -359.483 -1793.05Z" fill="#f00"/>
 <path d="M-267.21 -1979.4L-267.21 -1979.41A4.25197 4.25197 0 0 0 -275.714 -1979.4A4.25197 4.25197 0 0 0 -267.21 -1979.4Z" fill="#f00"/>
 <path d="M-344.77 -1922.71L-344.77 -1922.72A4.25197 4.25197 0 0 0 -353.274 -1922.71A4.25197 4.25197 0 0 0 -344.77 -1922.7Z" fill="#f00"/>
 <path d="M-480.501 -2409.01L-480.501 -2409.02A4.25197 4.25197 0 0 0 -489.005 -2409.01A4.25197 4.25197 0 0 0 -480.501 -2409.01Z" fill="#f00"/>
 <path d="M-643.318 -2459.5L-643.318 -2459.51A4.25197 4.25197 0 0 0 -651.822 -2459.5A4.25197 4.25197 0 0 0 -643.318 -2459.49Z" fill="#f00"/>
 <path d="M-747.841 -2508.65L-747.841 -2508.66A4.25197 4.25197 0 0 0 -756.345 -2508.65A4.25197 4.25197 0 0 0 -747.841 -2508.64Z" fill="#f00"/>
 <path d="M-754.169 -2501.11L-754.169 -2501.12A4.25197 4.25197 0 0 0 -762.673 -2501.11A4.25197 4.25197 0 0 0 -754.169 -2501.1Z" fill="#f00"/>
 <path d="M-705.072 -2472.76L-705.072 -2472.77A4.25197 4.25197 0 0 0 -713.576 -2472.76A4.25197 4.25197 0 0 0 -705.072 -2472.76Z" fill="#f00"/>
 <path d="M-660.37 -2449.66L-660.37 -2449.66A4.25197 4.25197 0 0 0 -668.874 -2449.66A4.25197 4.25197 0 0 0 -660.37 -2449.65Z" fill="#f00"/>
 <path d="M-587.487 -2362.8L-587.487 -2362.8A4.25197 4.25197 0 0 0 -595.991 -2362.8A4.25197 4.25197 0 0 0 -587.487 -2362.79Z" fill="#f00"/>
 <path d="M-685.682 -2419.49L-685.682 -2419.5A4.25197 4.25197 0 0 0 -694.186 -2419.49A4.25197 4.25197 0 0 0 -685.682 -2419.48Z" fill="#f00"/>
 <path d="M-606.877 -2416.07L-606.877 -2416.08A4.25197 4.25197 0 0 0 -615.381 -2416.07A4.25197 4.25197 0 0 0 -606.877 -2416.06Z" fill="#f00"/>
 <path d="M-665.727 -2067.53L-665.727 -2067.53A4.25197 4.25197 0 0 0 -674.231 -2067.53A4.25197 4.25197 0 0 0 -665.727 -2067.52Z" fill="#f00"/>
 <path d="M-685.118 -2120.8L-685.118 -2120.81A4.25197 4.25197 0 0 0 -693.622 -2120.8A4.25197 4.25197 0 0 0 -685.118 -2120.79Z" fill="#f00"/>
 <path d="M-878.19 -2396.14L-878.19 -2396.15A4.25197 4.25197 0 0 0 -886.693 -2396.14A4.25197 4.25197 0 0 0 -878.19 -2396.13Z" fill="#f00"/>
 <path d="M-950.26 -2331.2L-950.26 -2331.21A4.25197 4.25197 0 0 0 -958.764 -2331.2A4.25197 4.25197 0 0 0 -950.26 -2331.2Z" fill="#f00"/>
 <path d="M-960.312 -2237.6L-960.313 -2237.61A4.25197 4.25197 0 0 0 -968.816 -2237.6A4.25197 4.25197 0 0 0 -960.313 -2237.6Z" fill="#f00"/>
 <path d="M-949.995 -2142.09L-949.995 -2142.1A4.25197 4.25197 0 0 0 -958.499 -2142.09A4.25197 4.25197 0 0 0 -949.995 -2142.08Z" fill="#f00"/>
 <path d="M-845.066 -2103.9L-845.066 -2103.9A4.25197 4.25197 0 0 0 -853.57 -2103.9A4.25197 4.25197 0 0 0 -845.066 -2103.89Z" fill="#f00"/>
 <path d="M-862.117 -2180.91L-862.117 -2180.92A4.25197 4.25197 0 0 0 -870.621 -2180.91A4.25197 4.25197 0 0 0 -862.117 -2180.9Z" fill="#f00"/>
 <path d="M-532.617 -1878.73L-532.617 -1878.73A4.25197 4.25197 0 0 0 -541.121 -1878.73A4.25197 4.25197 0 0 0 -532.617 -1878.72Z" fill="#f00"/>
 <path d="M-656.937 -1883.33L-656.937 -1883.34A4.25197 4.25197 0 0 0 -665.441 -1883.33A4.25197 4.25197 0 0 0 -656.937 -1883.32Z" fill="#f00"/>
 <path d="M-620.495 -2013.62L-620.495 -2013.63A4.25197 4.25197 0 0 0 -628.999 -2013.62A4.25197 4.25197 0 0 0 -620.495 -2013.61Z" fill="#f00"/>
 <path d="M-701.904 -2095.56L-701.904 -2095.56A4.25197 4.25197 0 0 0 -710.408 -2095.56A4.25197 4.25197 0 0 0 -701.904 -2095.55Z" fill="#f00"/>
 <path d="M-670.405 -1787.26L-670.405 -1787.27A4.25197 4.25197 0 0 0 -678.909 -1787.26A4.25197 4.25197 0 0 0 -670.405 -1787.25Z" fill="#f00"/>
 <path d="M-614.573 -2097.06L-614.573 -2097.07A4.25197 4.25197 0 0 0 -623.077 -2097.06A4.25197 4.25197 0 0 0 -614.573 -2097.05Z" fill="#f00"/>
 <path d="M-597.522 -2220.29L-597.522 -2220.3A4.25197 4.25197 0 0 0 -606.026 -2220.29A4.25197 4.25197 0 0 0 -597.522 -2220.28Z" fill="#f00"/>
 <path d="M-597.522 -2163.6L-597.522 -2163.6A4.25197 4.25197 0 0 0 -606.026 -2163.6A4.25197 4.25197 0 0 0 -597.522 -2163.59Z" fill="#f00"/>
 <path d="M-539.352 -2003.77L-539.352 -2003.78A4.25197 4.25197 0 0 0 -547.856 -2003.77A4.25197 4.25197 0 0 0 -539.352 -2003.77Z" fill="#f00"/>
 <path d="M-631.625 -2087.21L-631.625 -2087.22A4.25197 4.25197 0 0 0 -640.129 -2087.21A4.25197 4.25197 0 0 0 -631.625 -2087.21Z" fill="#f00"/>
 <path d="M62.4223 -1343.53L62.4223 -1343.54A4.25197 4.25197 0 0 0 53.9184 -1343.53A4.25197 4.25197 0 0 0 62.4223 -1343.53Z" fill="#f00"/>
 <path d="M45.3709 -1333.69L45.3709 -1333.7A4.25197 4.25197 0 0 0 36.867 -1333.69A4.25197 4.25197 0 0 0 45.3709 -1333.68Z" fill="#f00"/>
 <path d="M120.593 -1453.5L120.593 -1453.51A4.25197 4.25197 0 0 0 112.089 -1453.5A4.25197 4.25197 0 0 0 120.593 -1453.49Z" fill="#f00"/>
 <path d="M101.203 -1400.23L101.203 -1400.24A4.25197 4.25197 0 0 0 92.6986 -1400.23A4.25197 4.25197 0 0 0 101.203 -1400.22Z" fill="#f00"/>
 <path d="M52.7273 -1735.26L52.7273 -1735.26A4.25197 4.25197 0 0 0 44.2233 -1735.26A4.25197 4.25197 0 0 0 52.7273 -1735.25Z" fill="#f00"/>
 <path d="M-34.5283 -1666.6L-34.5283 -1666.6A4.25197 4.25197 0 0 0 -43.0322 -1666.6A4.25197 4.25197 0 0 0 -34.5283 -1666.59Z" fill="#f00"/>
 <path d="M-124.463 -1630.23L-124.463 -1630.23A4.25197 4.25197 0 0 0 -132.967 -1630.23A4.25197 4.25197 0 0 0 -124.463 -1630.22Z" fill="#f00"/>
 <path d="M4.25197 -1560.05L4.25196 -1560.06A4.25197 4.25197 0 0 0 -4.25197 -1560.05A4.25197 4.25197 0 0 0 4.25196 -1560.04Z" fill="#f00"/>
 <path d="M4.25197 -1560.05L4.25196 -1560.06A4.25197 4.25197 0 0 0 -4.25197 -1560.05A4.25197 4.25197 0 0 0 4.25196 -1560.04Z" fill="#f00"/>
 <path d="M-44.2233 -1664.89L-44.2233 -1664.9A4.25197 4.25197 0 0 0 -52.7273 -1664.89A4.25197 4.25197 0 0 0 -44.2233 -1664.88Z" fill="#f00"/>
 <path d="M-53.9184 -1663.18L-53.9184 -1663.19A4.25197 4.25197 0 0 0 -62.4223 -1663.18A4.25197 4.25197 0 0 0 -53.9184 -1663.17Z" fill="#f00"/>
 <path d="M-64.2357 -1528.28L-64.2357 -1528.29A4.25197 4.25197 0 0 0 -72.7396 -1528.28A4.25197 4.25197 0 0 0 -64.2357 -1528.28Z" fill="#f00"/>
 <path d="M-219.075 -1833.48L-219.075 -1833.48A4.25197 4.25197 0 0 0 -227.578 -1833.48A4.25197 4.25197 0 0 0 -219.075 -1833.47Z" fill="#f00"/>
 <path d="M-242.048 -1740.19L-242.048 -1740.2A4.25197 4.25197 0 0 0 -250.552 -1740.19A4.25197 4.25197 0 0 0 -242.048 -1740.18Z" fill="#f00"/>
 <path d="M-68.631 -1420.14L-68.631 -1420.14A4.25197 4.25197 0 0 0 -77.135 -1420.14A4.25197 4.25197 0 0 0 -68.631 -1420.13Z" fill="#f00"/>
 <path d="M-91.6043 -1326.85L-91.6043 -1326.86A4.25197 4.25197 0 0 0 -100.108 -1326.85A4.25197 4.25197 0 0 0 -91.6043 -1326.84Z" fill="#f00"/>
 <path d="M-140.702 -1355.2L-140.702 -1355.21A4.25197 4.25197 0 0 0 -149.206 -1355.2A4.25197 4.25197 0 0 0 -140.702 -1355.19Z" fill="#f00"/>
 <path d="M-255.732 -1365.64L-255.732 -1365.64A4.25197 4.25197 0 0 0 -264.236 -1365.64A4.25197 4.25197 0 0 0 -255.732 -1365.63Z" fill="#f00"/>
 <path d="M-259.099 -1356.39L-259.099 -1356.39A4.25197 4.25197 0 0 0 -267.603 -1356.39A4.25197 4.25197 0 0 0 -259.099 -1356.38Z" fill="#f00"/>
 <path d="M-42.5068 -1298.51L-42.5068 -1298.51A4.25197 4.25197 0 0 0 -51.0107 -1298.51A4.25197 4.25197 0 0 0 -42.5068 -1298.5Z" fill="#f00"/>
 <path d="M-91.6043 -1326.85L-91.6043 -1326.86A4.25197 4.25197 0 0 0 -100.108 -1326.85A4.25197 4.25197 0 0 0 -91.6043 -1326.84Z" fill="#f00"/>
 <path d="M-15.1381 -1556.63L-15.1382 -1556.64A4.25197 4.25197 0 0 0 -23.6421 -1556.63A4.25197 4.25197 0 0 0 -15.1382 -1556.62Z" fill="#f00"/>
 <path d="M43.0322 -1666.6L43.0322 -1666.6A4.25197 4.25197 0 0 0 34.5283 -1666.6A4.25197 4.25197 0 0 0 43.0322 -1666.59Z" fill="#f00"/>
 <path d="M4.25197 -1446.66L4.25196 -1446.67A4.25197 4.25197 0 0 0 -4.25197 -1446.66A4.25197 4.25197 0 0 0 4.25196 -1446.66Z" fill="#f00"/>
 <path d="M-53.9184 -1549.79L-53.9184 -1549.8A4.25197 4.25197 0 0 0 -62.4223 -1549.79A4.25197 4.25197 0 0 0 -53.9184 -1549.79Z" fill="#f00"/>
 <path d="M463.561 -1665.63L463.561 -1665.64A4.25197 4.25197 0 0 0 455.057 -1665.63A4.25197 4.25197 0 0 0 463.561 -1665.62Z" fill="#f00"/>
 <path d="M450.905 -1680.71L450.905 -1680.72A4.25197 4.25197 0 0 0 442.401 -1680.71A4.25197 4.25197 0 0 0 450.905 -1680.7Z" fill="#f00"/>
 <path d="M489.685 -1787.26L489.685 -1787.27A4.25197 4.25197 0 0 0 481.181 -1787.26A4.25197 4.25197 0 0 0 489.685 -1787.25Z" fill="#f00"/>
 <path d="M723.329 -1748.44L723.329 -1748.44A4.25197 4.25197 0 0 0 714.825 -1748.44A4.25197 4.25197 0 0 0 723.329 -1748.43Z" fill="#f00"/>
 <path d="M765.692 -1795.29L765.692 -1795.29A4.25197 4.25197 0 0 0 757.188 -1795.29A4.25197 4.25197 0 0 0 765.692 -1795.28Z" fill="#f00"/>
 <path d="M494.363 -1913.5L494.363 -1913.5A4.25197 4.25197 0 0 0 485.859 -1913.5A4.25197 4.25197 0 0 0 494.363 -1913.49Z" fill="#f00"/>
 <path d="M494.363 -2026.88L494.363 -2026.89A4.25197 4.25197 0 0 0 485.859 -2026.88A4.25197 4.25197 0 0 0 494.363 -2026.88Z" fill="#f00"/>
 <path d="M455.582 -1806.95L455.582 -1806.96A4.25197 4.25197 0 0 0 447.078 -1806.95A4.25197 4.25197 0 0 0 455.582 -1806.94Z" fill="#f00"/>
 <path d="M436.192 -1867.06L436.192 -1867.07A4.25197 4.25197 0 0 0 427.688 -1867.06A4.25197 4.25197 0 0 0 436.192 -1867.05Z" fill="#f00"/>
 <path d="M251.646 -1643.49L251.646 -1643.5A4.25197 4.25197 0 0 0 243.142 -1643.49A4.25197 4.25197 0 0 0 251.646 -1643.48Z" fill="#f00"/>
 <path d="M251.646 -1586.8L251.646 -1586.8A4.25197 4.25197 0 0 0 243.142 -1586.8A4.25197 4.25197 0 0 0 251.646 -1586.79Z" fill="#f00"/>
 <path d="M251.646 -1643.49L251.646 -1643.5A4.25197 4.25197 0 0 0 243.142 -1643.49A4.25197 4.25197 0 0 0 251.646 -1643.48Z" fill="#f00"/>
 <path d="M212.866 -1750.04L212.866 -1750.04A4.25197 4.25197 0 0 0 204.362 -1750.04A4.25197 4.25197 0 0 0 212.866 -1750.03Z" fill="#f00"/>
 <path d="M271.036 -1696.76L271.036 -1696.77A4.25197 4.25197 0 0 0 262.532 -1696.76A4.25197 4.25197 0 0 0 271.036 -1696.76Z" fill="#f00"/>
 <path d="M271.036 -1640.07L271.036 -1640.08A4.25197 4.25197 0 0 0 262.532 -1640.07A4.25197 4.25197 0 0 0 271.036 -1640.06Z" fill="#f00"/>
 <path d="M174.086 -1636.65L174.086 -1636.66A4.25197 4.25197 0 0 0 165.582 -1636.65A4.25197 4.25197 0 0 0 174.086 -1636.64Z" fill="#f00"/>
 <path d="M193.476 -1583.38L193.476 -1583.38A4.25197 4.25197 0 0 0 184.972 -1583.38A4.25197 4.25197 0 0 0 193.476 -1583.37Z" fill="#f00"/>
 <path d="M403.334 -1563.69L403.334 -1563.7A4.25197 4.25197 0 0 0 394.83 -1563.69A4.25197 4.25197 0 0 0 403.334 -1563.68Z" fill="#f00"/>
 <path d="M427.119 -1622.2L427.119 -1622.21A4.25197 4.25197 0 0 0 418.615 -1622.2A4.25197 4.25197 0 0 0 427.119 -1622.19Z" fill="#f00"/>
</svg>
