<?xml version="1.0" encoding="utf-8"?>
<svg xmlns="http://www.w3.org/2000/svg" stroke-width="0.566929" stroke-miterlimit="10.000000" height="2303.15pt" x="-1991.99pt" version="1.1" viewBox="-1991.99 -2299.61 2658.35 2303.15" y="-2299.61pt" width="2658.35pt" fill="none">
 <g stroke-width="7.086614">
  <path stroke="black" d="M0 -0L1.73572e-15 -28.3465L24.5488 -42.5197L6.29418e-15 -56.6929L1.43241e-14 -85.0394L24.5488 -99.2126L49.0975 -85.0394L49.0975 -113.386L73.6463 -127.559L49.0975 -141.732L49.0975 -170.079L24.5488 -155.906L3.4618e-14 -170.079L4.26479e-14 -198.425L24.5488 -212.598L5.03534e-14 -226.772L5.83833e-14 -255.118L24.5488 -269.291L49.0975 -255.118L49.0975 -283.465L73.6463 -297.638L98.195 -283.465L98.195 -255.118L122.744 -269.291L147.293 -255.118L147.293 -283.465L171.841 -297.638L147.293 -311.811L147.293 -340.157L171.841 -354.331L196.39 -340.157L196.39 -368.504L220.939 -382.677L196.39 -396.85L196.39 -425.197L171.841 -411.024L147.293 -425.197L147.293 -453.543L171.841 -467.717L147.293 -481.89L147.293 -510.236L122.744 -496.063L98.195 -510.236L98.195 -481.89L73.6463 -467.717L49.0975 -481.89L49.0975 -510.236L24.5488 -496.063L-1.57354e-14 -510.236L-7.70555e-15 -538.583L24.5488 -552.756L0 -566.929L8.0299e-15 -595.276L24.5488 -609.449L49.0975 -595.276L49.0975 -623.622L73.6463 -637.795L49.0975 -651.969L49.0975 -680.315L24.5488 -666.142L2.20296e-14 -680.315L3.00595e-14 -708.661L24.5488 -722.835L3.77651e-14 -737.008L4.5795e-14 -765.354L24.5488 -779.528L49.0975 -765.354L49.0975 -793.701L73.6463 -807.874L98.195 -793.701L98.195 -765.354L122.744 -779.528L147.293 -765.354L147.293 -793.701L171.841 -807.874L147.293 -822.047L147.293 -850.394L171.841 -864.567L196.39 -850.394L196.39 -878.74L220.939 -892.913L245.488 -878.74L245.488 -850.394L270.036 -864.567L294.585 -850.394L294.585 -822.047L270.036 -807.874L294.585 -793.701L294.585 -765.354L319.134 -779.528L343.683 -765.354L343.683 -793.701L368.231 -807.874L392.78 -793.701L392.78 -765.354L417.329 -779.528L441.878 -765.354L441.878 -793.701L466.426 -807.874L441.878 -822.047L441.878 -850.394L466.426 -864.567L490.975 -850.394L490.975 -878.74L515.524 -892.913L490.975 -907.087L490.975 -935.433L466.426 -921.26L441.878 -935.433L441.878 -963.78L466.426 -977.953L441.878 -992.126L441.878 -1020.47L466.426 -1034.65L490.975 -1020.47L490.975 -1048.82L515.524 -1062.99L540.073 -1048.82L540.073 -1020.47L564.621 -1034.65L589.17 -1020.47L589.17 -1048.82L613.719 -1062.99L589.17 -1077.17L589.17 -1105.51L613.719 -1119.69L638.268 -1105.51L638.268 -1133.86L662.816 -1148.03L638.268 -1162.2L638.268 -1190.55L613.719 -1176.38L589.17 -1190.55L589.17 -1218.9L613.719 -1233.07L589.17 -1247.24L589.17 -1275.59L564.621 -1261.42L540.073 -1275.59L540.073 -1247.24L515.524 -1233.07L490.975 -1247.24L490.975 -1275.59L466.426 -1261.42L441.878 -1275.59L441.878 -1303.94L466.426 -1318.11L441.878 -1332.28L441.878 -1360.63L466.426 -1374.8L490.975 -1360.63L490.975 -1388.98L515.524 -1403.15L490.975 -1417.32L490.975 -1445.67L466.426 -1431.5L441.878 -1445.67L441.878 -1474.02L466.426 -1488.19L441.878 -1502.36L441.878 -1530.71L417.329 -1516.54L392.78 -1530.71L392.78 -1502.36L368.231 -1488.19L343.683 -1502.36L343.683 -1530.71L319.134 -1516.54L294.585 -1530.71L294.585 -1502.36L270.036 -1488.19L294.585 -1474.02L294.585 -1445.67L270.036 -1431.5L245.488 -1445.67L245.488 -1417.32L220.939 -1403.15L196.39 -1417.32L196.39 -1445.67L171.841 -1431.5L147.293 -1445.67L147.293 -1474.02L171.841 -1488.19L147.293 -1502.36L147.293 -1530.71L122.744 -1516.54L98.195 -1530.71L98.195 -1502.36L73.6463 -1488.19L49.0975 -1502.36L49.0975 -1530.71L24.5488 -1516.54L-2.92679e-13 -1530.71L-2.84649e-13 -1559.06L24.5488 -1573.23L-2.76944e-13 -1587.4L-2.68914e-13 -1615.75L24.5488 -1629.92L49.0975 -1615.75L49.0975 -1644.09L73.6463 -1658.27L49.0975 -1672.44L49.0975 -1700.79L24.5488 -1686.61L-2.54914e-13 -1700.79L-2.46884e-13 -1729.13L24.5488 -1743.31L-2.39179e-13 -1757.48L-2.31149e-13 -1785.83L24.5488 -1800L49.0975 -1785.83L49.0975 -1814.17L73.6463 -1828.35L98.195 -1814.17L98.195 -1785.83L122.744 -1800L147.293 -1785.83L147.293 -1814.17L171.841 -1828.35L147.293 -1842.52L147.293 -1870.87L171.841 -1885.04L196.39 -1870.87L196.39 -1899.21L220.939 -1913.39L196.39 -1927.56L196.39 -1955.91L171.841 -1941.73L147.293 -1955.91L147.293 -1984.25L171.841 -1998.43L147.293 -2012.6L147.293 -2040.94L122.744 -2026.77L98.195 -2040.94L98.195 -2012.6L73.6463 -1998.43L49.0975 -2012.6L49.0975 -2040.94L24.5488 -2026.77L-3.17856e-13 -2040.94L-3.09826e-13 -2069.29L24.5488 -2083.46L-3.02121e-13 -2097.64L-2.94091e-13 -2125.98L24.5488 -2140.16L49.0975 -2125.98L49.0975 -2154.33L73.6463 -2168.5L49.0975 -2182.68L49.0975 -2211.02L24.5488 -2196.85L-2.80091e-13 -2211.02L-2.72061e-13 -2239.37L24.5488 -2253.54L-2.64355e-13 -2267.72L-2.56326e-13 -2296.06L-24.5488 -2281.89L-49.0975 -2296.06L-49.0975 -2267.72L-73.6463 -2253.54L-98.195 -2267.72L-98.195 -2296.06L-122.744 -2281.89L-147.293 -2296.06L-147.293 -2267.72L-171.841 -2253.54L-147.293 -2239.37L-147.293 -2211.02L-171.841 -2196.85L-196.39 -2211.02L-196.39 -2182.68L-220.939 -2168.5L-245.488 -2182.68L-245.488 -2211.02L-270.036 -2196.85L-294.585 -2211.02L-294.585 -2239.37L-270.036 -2253.54L-294.585 -2267.72L-294.585 -2296.06L-319.134 -2281.89L-343.683 -2296.06L-343.683 -2267.72L-368.231 -2253.54L-392.78 -2267.72L-392.78 -2296.06L-417.329 -2281.89L-441.878 -2296.06L-441.878 -2267.72L-466.426 -2253.54L-441.878 -2239.37L-441.878 -2211.02L-466.426 -2196.85L-490.975 -2211.02L-490.975 -2182.68L-515.524 -2168.5L-490.975 -2154.33L-490.975 -2125.98L-466.426 -2140.16L-441.878 -2125.98L-441.878 -2097.64L-466.426 -2083.46L-441.878 -2069.29L-441.878 -2040.94L-466.426 -2026.77L-490.975 -2040.94L-490.975 -2012.6L-515.524 -1998.43L-540.073 -2012.6L-540.073 -2040.94L-564.621 -2026.77L-589.17 -2040.94L-589.17 -2012.6L-613.719 -1998.43L-589.17 -1984.25L-589.17 -1955.91L-613.719 -1941.73L-638.268 -1955.91L-638.268 -1927.56L-662.816 -1913.39L-687.365 -1927.56L-687.365 -1955.91L-711.914 -1941.73L-736.463 -1955.91L-736.463 -1984.25L-711.914 -1998.43L-736.463 -2012.6L-736.463 -2040.94L-761.011 -2026.77L-785.56 -2040.94L-785.56 -2012.6L-810.109 -1998.43L-834.658 -2012.6L-834.658 -2040.94L-859.206 -2026.77L-883.755 -2040.94L-883.755 -2069.29L-859.206 -2083.46L-883.755 -2097.64L-883.755 -2125.98L-859.206 -2140.16L-834.658 -2125.98L-834.658 -2154.33L-810.109 -2168.5L-834.658 -2182.68L-834.658 -2211.02L-859.206 -2196.85L-883.755 -2211.02L-883.755 -2239.37L-859.206 -2253.54L-883.755 -2267.72L-883.755 -2296.06L-908.304 -2281.89L-932.853 -2296.06L-932.853 -2267.72L-957.401 -2253.54L-981.95 -2267.72L-981.95 -2296.06L-1006.5 -2281.89L-1031.05 -2296.06L-1031.05 -2267.72L-1055.6 -2253.54L-1031.05 -2239.37L-1031.05 -2211.02L-1055.6 -2196.85L-1080.15 -2211.02L-1080.15 -2182.68L-1104.69 -2168.5L-1129.24 -2182.68L-1129.24 -2211.02L-1153.79 -2196.85L-1178.34 -2211.02L-1178.34 -2239.37L-1153.79 -2253.54L-1178.34 -2267.72L-1178.34 -2296.06L-1202.89 -2281.89L-1227.44 -2296.06L-1227.44 -2267.72L-1251.99 -2253.54L-1276.54 -2267.72L-1276.54 -2296.06L-1301.08 -2281.89L-1325.63 -2296.06L-1325.63 -2267.72L-1350.18 -2253.54L-1325.63 -2239.37L-1325.63 -2211.02L-1350.18 -2196.85L-1374.73 -2211.02L-1374.73 -2182.68L-1399.28 -2168.5L-1374.73 -2154.33L-1374.73 -2125.98L-1350.18 -2140.16L-1325.63 -2125.98L-1325.63 -2097.64L-1350.18 -2083.46L-1325.63 -2069.29L-1325.63 -2040.94L-1350.18 -2026.77L-1374.73 -2040.94L-1374.73 -2012.6L-1399.28 -1998.43L-1423.83 -2012.6L-1423.83 -2040.94L-1448.38 -2026.77L-1472.93 -2040.94L-1472.93 -2012.6L-1497.47 -1998.43L-1472.93 -1984.25L-1472.93 -1955.91L-1497.47 -1941.73L-1522.02 -1955.91L-1522.02 -1927.56L-1546.57 -1913.39L-1522.02 -1899.21L-1522.02 -1870.87L-1497.47 -1885.04L-1472.93 -1870.87L-1472.93 -1842.52L-1497.47 -1828.35L-1472.93 -1814.17L-1472.93 -1785.83L-1448.38 -1800L-1423.83 -1785.83L-1423.83 -1814.17L-1399.28 -1828.35L-1374.73 -1814.17L-1374.73 -1785.83L-1350.18 -1800L-1325.63 -1785.83L-1325.63 -1757.48L-1350.18 -1743.31L-1325.63 -1729.13L-1325.63 -1700.79L-1350.18 -1686.61L-1374.73 -1700.79L-1374.73 -1672.44L-1399.28 -1658.27L-1374.73 -1644.09L-1374.73 -1615.75L-1350.18 -1629.92L-1325.63 -1615.75L-1325.63 -1587.4L-1350.18 -1573.23L-1325.63 -1559.06L-1325.63 -1530.71L-1350.18 -1516.54L-1374.73 -1530.71L-1374.73 -1502.36L-1399.28 -1488.19L-1423.83 -1502.36L-1423.83 -1530.71L-1448.38 -1516.54L-1472.93 -1530.71L-1472.93 -1502.36L-1497.47 -1488.19L-1472.93 -1474.02L-1472.93 -1445.67L-1497.47 -1431.5L-1522.02 -1445.67L-1522.02 -1417.32L-1546.57 -1403.15L-1571.12 -1417.32L-1571.12 -1445.67L-1595.67 -1431.5L-1620.22 -1445.67L-1620.22 -1474.02L-1595.67 -1488.19L-1620.22 -1502.36L-1620.22 -1530.71L-1644.77 -1516.54L-1669.32 -1530.71L-1669.32 -1502.36L-1693.86 -1488.19L-1718.41 -1502.36L-1718.41 -1530.71L-1742.96 -1516.54L-1767.51 -1530.71L-1767.51 -1502.36L-1792.06 -1488.19L-1767.51 -1474.02L-1767.51 -1445.67L-1792.06 -1431.5L-1816.61 -1445.67L-1816.61 -1417.32L-1841.16 -1403.15L-1816.61 -1388.98L-1816.61 -1360.63L-1792.06 -1374.8L-1767.51 -1360.63L-1767.51 -1332.28L-1792.06 -1318.11L-1767.51 -1303.94L-1767.51 -1275.59L-1792.06 -1261.42L-1816.61 -1275.59L-1816.61 -1247.24L-1841.16 -1233.07L-1865.71 -1247.24L-1865.71 -1275.59L-1890.25 -1261.42L-1914.8 -1275.59L-1914.8 -1247.24L-1939.35 -1233.07L-1914.8 -1218.9L-1914.8 -1190.55L-1939.35 -1176.38L-1963.9 -1190.55L-1963.9 -1162.2L-1988.45 -1148.03L-1963.9 -1133.86L-1963.9 -1105.51L-1939.35 -1119.69L-1914.8 -1105.51L-1914.8 -1077.17L-1939.35 -1062.99L-1914.8 -1048.82L-1914.8 -1020.47L-1890.25 -1034.65L-1865.71 -1020.47L-1865.71 -1048.82L-1841.16 -1062.99L-1816.61 -1048.82L-1816.61 -1020.47L-1792.06 -1034.65L-1767.51 -1020.47L-1767.51 -992.126L-1792.06 -977.953L-1767.51 -963.78L-1767.51 -935.433L-1792.06 -921.26L-1816.61 -935.433L-1816.61 -907.087L-1841.16 -892.913L-1816.61 -878.74L-1816.61 -850.394L-1792.06 -864.567L-1767.51 -850.394L-1767.51 -822.047L-1792.06 -807.874L-1767.51 -793.701L-1767.51 -765.354L-1742.96 -779.528L-1718.41 -765.354L-1718.41 -793.701L-1693.86 -807.874L-1669.32 -793.701L-1669.32 -765.354L-1644.77 -779.528L-1620.22 -765.354L-1620.22 -793.701L-1595.67 -807.874L-1620.22 -822.047L-1620.22 -850.394L-1595.67 -864.567L-1571.12 -850.394L-1571.12 -878.74L-1546.57 -892.913L-1522.02 -878.74L-1522.02 -850.394L-1497.47 -864.567L-1472.93 -850.394L-1472.93 -822.047L-1497.47 -807.874L-1472.93 -793.701L-1472.93 -765.354L-1448.38 -779.528L-1423.83 -765.354L-1423.83 -793.701L-1399.28 -807.874L-1374.73 -793.701L-1374.73 -765.354L-1350.18 -779.528L-1325.63 -765.354L-1325.63 -737.008L-1350.18 -722.835L-1325.63 -708.661L-1325.63 -680.315L-1350.18 -666.142L-1374.73 -680.315L-1374.73 -651.969L-1399.28 -637.795L-1374.73 -623.622L-1374.73 -595.276L-1350.18 -609.449L-1325.63 -595.276L-1325.63 -566.929L-1350.18 -552.756L-1325.63 -538.583L-1325.63 -510.236L-1350.18 -496.063L-1374.73 -510.236L-1374.73 -481.89L-1399.28 -467.717L-1423.83 -481.89L-1423.83 -510.236L-1448.38 -496.063L-1472.93 -510.236L-1472.93 -481.89L-1497.47 -467.717L-1472.93 -453.543L-1472.93 -425.197L-1497.47 -411.024L-1522.02 -425.197L-1522.02 -396.85L-1546.57 -382.677L-1522.02 -368.504L-1522.02 -340.157L-1497.47 -354.331L-1472.93 -340.157L-1472.93 -311.811L-1497.47 -297.638L-1472.93 -283.465L-1472.93 -255.118L-1448.38 -269.291L-1423.83 -255.118L-1423.83 -283.465L-1399.28 -297.638L-1374.73 -283.465L-1374.73 -255.118L-1350.18 -269.291L-1325.63 -255.118L-1325.63 -226.772L-1350.18 -212.598L-1325.63 -198.425L-1325.63 -170.079L-1350.18 -155.906L-1374.73 -170.079L-1374.73 -141.732L-1399.28 -127.559L-1374.73 -113.386L-1374.73 -85.0394L-1350.18 -99.2126L-1325.63 -85.0394L-1325.63 -56.6929L-1350.18 -42.5197L-1325.63 -28.3465L-1325.63 6.29418e-14L-1301.08 -14.1732L-1276.54 9.75598e-14L-1276.54 -28.3465L-1251.99 -42.5197L-1227.44 -28.3465L-1227.44 1.32178e-13L-1202.89 -14.1732L-1178.34 1.66796e-13L-1178.34 -28.3465L-1153.79 -42.5197L-1178.34 -56.6929L-1178.34 -85.0394L-1153.79 -99.2126L-1129.24 -85.0394L-1129.24 -113.386L-1104.69 -127.559L-1080.15 -113.386L-1080.15 -85.0394L-1055.6 -99.2126L-1031.05 -85.0394L-1031.05 -56.6929L-1055.6 -42.5197L-1031.05 -28.3465L-1031.05 2.64355e-13L-1006.5 -14.1732L-981.95 2.98973e-13L-981.95 -28.3465L-957.401 -42.5197L-932.853 -28.3465L-932.853 3.33591e-13L-908.304 -14.1732L-883.755 3.68209e-13L-883.755 -28.3465L-859.206 -42.5197L-883.755 -56.6929L-883.755 -85.0394L-859.206 -99.2126L-834.658 -85.0394L-834.658 -113.386L-810.109 -127.559L-834.658 -141.732L-834.658 -170.079L-859.206 -155.906L-883.755 -170.079L-883.755 -198.425L-859.206 -212.598L-883.755 -226.772L-883.755 -255.118L-859.206 -269.291L-834.658 -255.118L-834.658 -283.465L-810.109 -297.638L-785.56 -283.465L-785.56 -255.118L-761.011 -269.291L-736.463 -255.118L-736.463 -283.465L-711.914 -297.638L-736.463 -311.811L-736.463 -340.157L-711.914 -354.331L-687.365 -340.157L-687.365 -368.504L-662.816 -382.677L-638.268 -368.504L-638.268 -340.157L-613.719 -354.331L-589.17 -340.157L-589.17 -311.811L-613.719 -297.638L-589.17 -283.465L-589.17 -255.118L-564.621 -269.291L-540.073 -255.118L-540.073 -283.465L-515.524 -297.638L-490.975 -283.465L-490.975 -255.118L-466.426 -269.291L-441.878 -255.118L-441.878 -226.772L-466.426 -212.598L-441.878 -198.425L-441.878 -170.079L-466.426 -155.906L-490.975 -170.079L-490.975 -141.732L-515.524 -127.559L-490.975 -113.386L-490.975 -85.0394L-466.426 -99.2126L-441.878 -85.0394L-441.878 -56.6929L-466.426 -42.5197L-441.878 -28.3465L-441.878 3.14709e-13L-417.329 -14.1732L-392.78 3.49327e-13L-392.78 -28.3465L-368.231 -42.5197L-343.683 -28.3465L-343.683 3.83945e-13L-319.134 -14.1732L-294.585 4.18563e-13L-294.585 -28.3465L-270.036 -42.5197L-294.585 -56.6929L-294.585 -85.0394L-270.036 -99.2126L-245.488 -85.0394L-245.488 -113.386L-220.939 -127.559L-196.39 -113.386L-196.39 -85.0394L-171.841 -99.2126L-147.293 -85.0394L-147.293 -56.6929L-171.841 -42.5197L-147.293 -28.3465L-147.293 5.16123e-13L-122.744 -14.1732L-98.195 5.50741e-13L-98.195 -28.3465L-73.6463 -42.5197L-49.0975 -28.3465L-49.0975 5.85359e-13L-24.5488 -14.1732L-3.65062e-13 6.19977e-13"/>
 </g>
</svg>
